<svg xmlns="http://www.w3.org/2000/svg" xmlns:xlink="http://www.w3.org/1999/xlink" width="375" viewBox="0 0 375 375" height="375" version="1.0"><defs><clipPath id="a"><path d="M 375 187.5 C 375 190.570312 374.925781 193.636719 374.773438 196.699219 C 374.625 199.765625 374.398438 202.824219 374.097656 205.878906 C 373.796875 208.933594 373.421875 211.976562 372.96875 215.011719 C 372.519531 218.046875 371.996094 221.070312 371.398438 224.078125 C 370.796875 227.089844 370.125 230.082031 369.378906 233.058594 C 368.636719 236.035156 367.816406 238.992188 366.925781 241.929688 C 366.035156 244.863281 365.074219 247.777344 364.039062 250.667969 C 363.003906 253.554688 361.902344 256.417969 360.726562 259.253906 C 359.554688 262.089844 358.308594 264.890625 356.996094 267.667969 C 355.6875 270.441406 354.308594 273.179688 352.859375 275.886719 C 351.414062 278.59375 349.902344 281.261719 348.324219 283.894531 C 346.746094 286.527344 345.105469 289.117188 343.402344 291.667969 C 341.695312 294.222656 339.929688 296.730469 338.101562 299.195312 C 336.273438 301.660156 334.386719 304.078125 332.4375 306.449219 C 330.492188 308.820312 328.488281 311.144531 326.429688 313.417969 C 324.367188 315.691406 322.253906 317.914062 320.082031 320.082031 C 317.914062 322.253906 315.691406 324.367188 313.417969 326.429688 C 311.144531 328.488281 308.820312 330.492188 306.449219 332.4375 C 304.078125 334.386719 301.660156 336.273438 299.195312 338.101562 C 296.730469 339.929688 294.222656 341.695312 291.667969 343.402344 C 289.117188 345.105469 286.527344 346.746094 283.894531 348.324219 C 281.261719 349.902344 278.59375 351.414062 275.886719 352.859375 C 273.179688 354.308594 270.441406 355.6875 267.667969 356.996094 C 264.890625 358.308594 262.089844 359.554688 259.253906 360.726562 C 256.417969 361.902344 253.554688 363.003906 250.667969 364.039062 C 247.777344 365.074219 244.863281 366.035156 241.929688 366.925781 C 238.992188 367.816406 236.035156 368.636719 233.058594 369.378906 C 230.082031 370.125 227.089844 370.796875 224.078125 371.398438 C 221.070312 371.996094 218.046875 372.519531 215.011719 372.96875 C 211.976562 373.421875 208.933594 373.796875 205.878906 374.097656 C 202.824219 374.398438 199.765625 374.625 196.699219 374.773438 C 193.636719 374.925781 190.570312 375 187.5 375 C 184.429688 375 181.363281 374.925781 178.300781 374.773438 C 175.234375 374.625 172.175781 374.398438 169.121094 374.097656 C 166.066406 373.796875 163.023438 373.421875 159.988281 372.96875 C 156.953125 372.519531 153.929688 371.996094 150.921875 371.398438 C 147.910156 370.796875 144.917969 370.125 141.941406 369.378906 C 138.964844 368.636719 136.007812 367.816406 133.070312 366.925781 C 130.136719 366.035156 127.222656 365.074219 124.332031 364.039062 C 121.445312 363.003906 118.582031 361.902344 115.746094 360.726562 C 112.910156 359.554688 110.105469 358.308594 107.332031 356.996094 C 104.558594 355.6875 101.820312 354.308594 99.113281 352.859375 C 96.40625 351.414062 93.738281 349.902344 91.105469 348.324219 C 88.472656 346.746094 85.882812 345.105469 83.332031 343.402344 C 80.777344 341.695312 78.269531 339.929688 75.804688 338.101562 C 73.339844 336.273438 70.921875 334.386719 68.550781 332.4375 C 66.179688 330.492188 63.855469 328.488281 61.582031 326.429688 C 59.308594 324.367188 57.085938 322.253906 54.917969 320.082031 C 52.746094 317.914062 50.632812 315.691406 48.570312 313.417969 C 46.511719 311.144531 44.507812 308.820312 42.558594 306.449219 C 40.613281 304.078125 38.726562 301.660156 36.898438 299.195312 C 35.070312 296.730469 33.304688 294.222656 31.597656 291.667969 C 29.894531 289.117188 28.253906 286.527344 26.675781 283.894531 C 25.097656 281.261719 23.585938 278.59375 22.140625 275.886719 C 20.691406 273.179688 19.3125 270.441406 18.003906 267.667969 C 16.691406 264.890625 15.445312 262.089844 14.273438 259.253906 C 13.097656 256.417969 11.996094 253.554688 10.960938 250.667969 C 9.925781 247.777344 8.964844 244.863281 8.074219 241.929688 C 7.183594 238.992188 6.363281 236.035156 5.621094 233.058594 C 4.875 230.082031 4.203125 227.089844 3.601562 224.078125 C 3.003906 221.070312 2.480469 218.046875 2.03125 215.011719 C 1.578125 211.976562 1.203125 208.933594 0.902344 205.878906 C 0.601562 202.824219 0.375 199.765625 0.226562 196.699219 C 0.0742188 193.636719 0 190.570312 0 187.5 C 0 184.429688 0.0742188 181.363281 0.226562 178.300781 C 0.375 175.234375 0.601562 172.175781 0.902344 169.121094 C 1.203125 166.066406 1.578125 163.023438 2.03125 159.988281 C 2.480469 156.953125 3.003906 153.929688 3.601562 150.921875 C 4.203125 147.910156 4.875 144.917969 5.621094 141.941406 C 6.363281 138.964844 7.183594 136.007812 8.074219 133.070312 C 8.964844 130.136719 9.925781 127.222656 10.960938 124.332031 C 11.996094 121.445312 13.097656 118.582031 14.273438 115.746094 C 15.445312 112.910156 16.691406 110.105469 18.003906 107.332031 C 19.3125 104.558594 20.691406 101.820312 22.140625 99.113281 C 23.585938 96.40625 25.097656 93.738281 26.675781 91.105469 C 28.253906 88.472656 29.894531 85.882812 31.597656 83.332031 C 33.304688 80.777344 35.070312 78.269531 36.898438 75.804688 C 38.726562 73.339844 40.613281 70.921875 42.558594 68.550781 C 44.507812 66.179688 46.511719 63.855469 48.570312 61.582031 C 50.632812 59.308594 52.746094 57.085938 54.917969 54.917969 C 57.085938 52.746094 59.308594 50.632812 61.582031 48.570312 C 63.855469 46.511719 66.179688 44.507812 68.550781 42.558594 C 70.921875 40.613281 73.339844 38.726562 75.804688 36.898438 C 78.269531 35.070312 80.777344 33.304688 83.332031 31.597656 C 85.882812 29.894531 88.472656 28.253906 91.105469 26.675781 C 93.738281 25.097656 96.40625 23.585938 99.113281 22.140625 C 101.820312 20.691406 104.558594 19.3125 107.332031 18.003906 C 110.105469 16.691406 112.910156 15.445312 115.746094 14.273438 C 118.582031 13.097656 121.445312 11.996094 124.332031 10.960938 C 127.222656 9.925781 130.136719 8.964844 133.070312 8.074219 C 136.007812 7.183594 138.964844 6.363281 141.941406 5.617188 C 144.917969 4.875 147.910156 4.203125 150.921875 3.601562 C 153.929688 3.003906 156.953125 2.480469 159.988281 2.03125 C 163.023438 1.578125 166.066406 1.203125 169.121094 0.902344 C 172.175781 0.601562 175.234375 0.375 178.300781 0.226562 C 181.363281 0.0742188 184.429688 0 187.5 0 C 190.570312 0 193.636719 0.0742188 196.699219 0.226562 C 199.765625 0.375 202.824219 0.601562 205.878906 0.902344 C 208.933594 1.203125 211.976562 1.578125 215.011719 2.03125 C 218.046875 2.480469 221.070312 3.003906 224.078125 3.601562 C 227.089844 4.203125 230.082031 4.875 233.058594 5.617188 C 236.035156 6.363281 238.992188 7.183594 241.929688 8.074219 C 244.863281 8.964844 247.777344 9.925781 250.667969 10.960938 C 253.554688 11.996094 256.417969 13.097656 259.253906 14.273438 C 262.089844 15.445312 264.890625 16.691406 267.667969 18.003906 C 270.441406 19.3125 273.179688 20.691406 275.886719 22.140625 C 278.59375 23.585938 281.261719 25.097656 283.894531 26.675781 C 286.527344 28.253906 289.117188 29.894531 291.667969 31.597656 C 294.222656 33.304688 296.730469 35.070312 299.195312 36.898438 C 301.660156 38.726562 304.078125 40.613281 306.449219 42.558594 C 308.820312 44.507812 311.144531 46.511719 313.417969 48.570312 C 315.691406 50.632812 317.914062 52.746094 320.082031 54.917969 C 322.253906 57.085938 324.367188 59.308594 326.429688 61.582031 C 328.488281 63.855469 330.492188 66.179688 332.4375 68.550781 C 334.386719 70.921875 336.273438 73.339844 338.101562 75.804688 C 339.929688 78.269531 341.695312 80.777344 343.402344 83.332031 C 345.105469 85.882812 346.746094 88.472656 348.324219 91.105469 C 349.902344 93.738281 351.414062 96.40625 352.859375 99.113281 C 354.308594 101.820312 355.6875 104.558594 356.996094 107.332031 C 358.308594 110.105469 359.554688 112.910156 360.726562 115.746094 C 361.902344 118.582031 363.003906 121.445312 364.039062 124.332031 C 365.074219 127.222656 366.035156 130.136719 366.925781 133.070312 C 367.816406 136.007812 368.636719 138.964844 369.378906 141.941406 C 370.125 144.917969 370.796875 147.910156 371.398438 150.921875 C 371.996094 153.929688 372.519531 156.953125 372.96875 159.988281 C 373.421875 163.023438 373.796875 166.066406 374.097656 169.121094 C 374.398438 172.175781 374.625 175.234375 374.773438 178.300781 C 374.925781 181.363281 375 184.429688 375 187.5 Z M 375 187.5"/></clipPath><clipPath id="c"><path d="M 75.183594 80 L 299.921875 80 L 299.921875 375 L 75.183594 375 Z M 75.183594 80"/></clipPath><linearGradient x1="0" gradientTransform="matrix(375 0 0 375 0 0)" y1="0" x2="1.005" gradientUnits="userSpaceOnUse" y2=".995" xlink:type="simple" xlink:actuate="onLoad" id="b" xlink:show="other"><stop stop-color="#092CAE" offset="0"/><stop stop-color="#0A2CAE" offset=".004"/><stop stop-color="#0B2CAE" offset=".008"/><stop stop-color="#0C2CAE" offset=".012"/><stop stop-color="#0D2BAE" offset=".016"/><stop stop-color="#0E2BAE" offset=".02"/><stop stop-color="#0F2BAE" offset=".023"/><stop stop-color="#102BAE" offset=".027"/><stop stop-color="#112BAE" offset=".031"/><stop stop-color="#112BAE" offset=".035"/><stop stop-color="#122AAE" offset=".039"/><stop stop-color="#132AAE" offset=".043"/><stop stop-color="#142AAE" offset=".047"/><stop stop-color="#152AAE" offset=".051"/><stop stop-color="#162AAE" offset=".055"/><stop stop-color="#172AAE" offset=".059"/><stop stop-color="#1829AF" offset=".063"/><stop stop-color="#1929AF" offset=".066"/><stop stop-color="#1A29AF" offset=".07"/><stop stop-color="#1B29AF" offset=".074"/><stop stop-color="#1C29AF" offset=".078"/><stop stop-color="#1D29AF" offset=".082"/><stop stop-color="#1E28AF" offset=".086"/><stop stop-color="#1F28AF" offset=".09"/><stop stop-color="#2028AF" offset=".094"/><stop stop-color="#2128AF" offset=".098"/><stop stop-color="#2228AF" offset=".102"/><stop stop-color="#2328AF" offset=".105"/><stop stop-color="#2427AF" offset=".109"/><stop stop-color="#2427AF" offset=".113"/><stop stop-color="#2527AF" offset=".117"/><stop stop-color="#2627AF" offset=".121"/><stop stop-color="#2727AF" offset=".125"/><stop stop-color="#2826AF" offset=".129"/><stop stop-color="#2926AF" offset=".133"/><stop stop-color="#2A26AF" offset=".137"/><stop stop-color="#2B26AF" offset=".141"/><stop stop-color="#2C26AF" offset=".145"/><stop stop-color="#2D26AF" offset=".148"/><stop stop-color="#2E25AF" offset=".152"/><stop stop-color="#2F25AF" offset=".156"/><stop stop-color="#3025B0" offset=".16"/><stop stop-color="#3125B0" offset=".164"/><stop stop-color="#3225B0" offset=".168"/><stop stop-color="#3325B0" offset=".172"/><stop stop-color="#3424B0" offset=".176"/><stop stop-color="#3524B0" offset=".18"/><stop stop-color="#3624B0" offset=".184"/><stop stop-color="#3724B0" offset=".188"/><stop stop-color="#3724B0" offset=".191"/><stop stop-color="#3824B0" offset=".195"/><stop stop-color="#3923B0" offset=".199"/><stop stop-color="#3A23B0" offset=".203"/><stop stop-color="#3B23B0" offset=".207"/><stop stop-color="#3C23B0" offset=".211"/><stop stop-color="#3D23B0" offset=".215"/><stop stop-color="#3E23B0" offset=".219"/><stop stop-color="#3F22B0" offset=".223"/><stop stop-color="#4022B0" offset=".227"/><stop stop-color="#4122B0" offset=".23"/><stop stop-color="#4222B0" offset=".234"/><stop stop-color="#4322B0" offset=".238"/><stop stop-color="#4422B0" offset=".242"/><stop stop-color="#4521B0" offset=".246"/><stop stop-color="#4621B0" offset=".25"/><stop stop-color="#4721B0" offset=".254"/><stop stop-color="#4821B1" offset=".258"/><stop stop-color="#4921B1" offset=".262"/><stop stop-color="#4A21B1" offset=".266"/><stop stop-color="#4A20B1" offset=".27"/><stop stop-color="#4B20B1" offset=".273"/><stop stop-color="#4C20B1" offset=".277"/><stop stop-color="#4D20B1" offset=".281"/><stop stop-color="#4E20B1" offset=".285"/><stop stop-color="#4F20B1" offset=".289"/><stop stop-color="#501FB1" offset=".293"/><stop stop-color="#511FB1" offset=".297"/><stop stop-color="#521FB1" offset=".301"/><stop stop-color="#531FB1" offset=".305"/><stop stop-color="#541FB1" offset=".309"/><stop stop-color="#551EB1" offset=".313"/><stop stop-color="#561EB1" offset=".316"/><stop stop-color="#571EB1" offset=".32"/><stop stop-color="#581EB1" offset=".324"/><stop stop-color="#591EB1" offset=".328"/><stop stop-color="#5A1EB1" offset=".332"/><stop stop-color="#5B1DB1" offset=".336"/><stop stop-color="#5C1DB1" offset=".34"/><stop stop-color="#5D1DB1" offset=".344"/><stop stop-color="#5D1DB1" offset=".348"/><stop stop-color="#5E1DB1" offset=".352"/><stop stop-color="#5F1DB1" offset=".355"/><stop stop-color="#601CB2" offset=".359"/><stop stop-color="#611CB2" offset=".363"/><stop stop-color="#621CB2" offset=".367"/><stop stop-color="#631CB2" offset=".371"/><stop stop-color="#641CB2" offset=".375"/><stop stop-color="#651CB2" offset=".379"/><stop stop-color="#661BB2" offset=".383"/><stop stop-color="#671BB2" offset=".387"/><stop stop-color="#681BB2" offset=".391"/><stop stop-color="#691BB2" offset=".395"/><stop stop-color="#6A1BB2" offset=".398"/><stop stop-color="#6B1BB2" offset=".402"/><stop stop-color="#6C1AB2" offset=".406"/><stop stop-color="#6D1AB2" offset=".41"/><stop stop-color="#6E1AB2" offset=".414"/><stop stop-color="#6F1AB2" offset=".418"/><stop stop-color="#701AB2" offset=".422"/><stop stop-color="#701AB2" offset=".426"/><stop stop-color="#7119B2" offset=".43"/><stop stop-color="#7219B2" offset=".434"/><stop stop-color="#7319B2" offset=".438"/><stop stop-color="#7419B2" offset=".441"/><stop stop-color="#7519B2" offset=".445"/><stop stop-color="#7619B2" offset=".449"/><stop stop-color="#7718B2" offset=".453"/><stop stop-color="#7818B3" offset=".457"/><stop stop-color="#7918B3" offset=".461"/><stop stop-color="#7A18B3" offset=".465"/><stop stop-color="#7B18B3" offset=".469"/><stop stop-color="#7C18B3" offset=".473"/><stop stop-color="#7D17B3" offset=".477"/><stop stop-color="#7E17B3" offset=".48"/><stop stop-color="#7F17B3" offset=".484"/><stop stop-color="#8017B3" offset=".488"/><stop stop-color="#8117B3" offset=".492"/><stop stop-color="#8216B3" offset=".496"/><stop stop-color="#8316B3" offset=".5"/><stop stop-color="#8316B3" offset=".504"/><stop stop-color="#8416B3" offset=".508"/><stop stop-color="#8516B3" offset=".512"/><stop stop-color="#8616B3" offset=".516"/><stop stop-color="#8715B3" offset=".52"/><stop stop-color="#8815B3" offset=".523"/><stop stop-color="#8915B3" offset=".527"/><stop stop-color="#8A15B3" offset=".531"/><stop stop-color="#8B15B3" offset=".535"/><stop stop-color="#8C15B3" offset=".539"/><stop stop-color="#8D14B3" offset=".543"/><stop stop-color="#8E14B3" offset=".547"/><stop stop-color="#8F14B3" offset=".551"/><stop stop-color="#9014B3" offset=".555"/><stop stop-color="#9114B4" offset=".559"/><stop stop-color="#9214B4" offset=".563"/><stop stop-color="#9313B4" offset=".566"/><stop stop-color="#9413B4" offset=".57"/><stop stop-color="#9513B4" offset=".574"/><stop stop-color="#9613B4" offset=".578"/><stop stop-color="#9613B4" offset=".582"/><stop stop-color="#9713B4" offset=".586"/><stop stop-color="#9812B4" offset=".59"/><stop stop-color="#9912B4" offset=".594"/><stop stop-color="#9A12B4" offset=".598"/><stop stop-color="#9B12B4" offset=".602"/><stop stop-color="#9C12B4" offset=".605"/><stop stop-color="#9D12B4" offset=".609"/><stop stop-color="#9E11B4" offset=".613"/><stop stop-color="#9F11B4" offset=".617"/><stop stop-color="#A011B4" offset=".621"/><stop stop-color="#A111B4" offset=".625"/><stop stop-color="#A211B4" offset=".629"/><stop stop-color="#A311B4" offset=".633"/><stop stop-color="#A410B4" offset=".637"/><stop stop-color="#A510B4" offset=".641"/><stop stop-color="#A610B4" offset=".645"/><stop stop-color="#A710B4" offset=".648"/><stop stop-color="#A810B4" offset=".652"/><stop stop-color="#A910B5" offset=".656"/><stop stop-color="#A90FB5" offset=".66"/><stop stop-color="#AA0FB5" offset=".664"/><stop stop-color="#AB0FB5" offset=".668"/><stop stop-color="#AC0FB5" offset=".672"/><stop stop-color="#AD0FB5" offset=".676"/><stop stop-color="#AE0EB5" offset=".68"/><stop stop-color="#AF0EB5" offset=".684"/><stop stop-color="#B00EB5" offset=".688"/><stop stop-color="#B10EB5" offset=".691"/><stop stop-color="#B20EB5" offset=".695"/><stop stop-color="#B30EB5" offset=".699"/><stop stop-color="#B40DB5" offset=".703"/><stop stop-color="#B50DB5" offset=".707"/><stop stop-color="#B60DB5" offset=".711"/><stop stop-color="#B70DB5" offset=".715"/><stop stop-color="#B80DB5" offset=".719"/><stop stop-color="#B90DB5" offset=".723"/><stop stop-color="#BA0CB5" offset=".727"/><stop stop-color="#BB0CB5" offset=".73"/><stop stop-color="#BC0CB5" offset=".734"/><stop stop-color="#BC0CB5" offset=".738"/><stop stop-color="#BD0CB5" offset=".742"/><stop stop-color="#BE0CB5" offset=".746"/><stop stop-color="#BF0BB5" offset=".75"/><stop stop-color="#C00BB6" offset=".754"/><stop stop-color="#C10BB6" offset=".758"/><stop stop-color="#C20BB6" offset=".762"/><stop stop-color="#C30BB6" offset=".766"/><stop stop-color="#C40BB6" offset=".77"/><stop stop-color="#C50AB6" offset=".773"/><stop stop-color="#C60AB6" offset=".777"/><stop stop-color="#C70AB6" offset=".781"/><stop stop-color="#C80AB6" offset=".785"/><stop stop-color="#C90AB6" offset=".789"/><stop stop-color="#CA0AB6" offset=".793"/><stop stop-color="#CB09B6" offset=".797"/><stop stop-color="#CC09B6" offset=".801"/><stop stop-color="#CD09B6" offset=".805"/><stop stop-color="#CE09B6" offset=".809"/><stop stop-color="#CE09B6" offset=".813"/><stop stop-color="#CF09B6" offset=".816"/><stop stop-color="#D008B6" offset=".82"/><stop stop-color="#D108B6" offset=".824"/><stop stop-color="#D208B6" offset=".828"/><stop stop-color="#D308B6" offset=".832"/><stop stop-color="#D408B6" offset=".836"/><stop stop-color="#D507B6" offset=".84"/><stop stop-color="#D607B6" offset=".844"/><stop stop-color="#D707B6" offset=".848"/><stop stop-color="#D807B6" offset=".852"/><stop stop-color="#D907B7" offset=".855"/><stop stop-color="#DA07B7" offset=".859"/><stop stop-color="#DB06B7" offset=".863"/><stop stop-color="#DC06B7" offset=".867"/><stop stop-color="#DD06B7" offset=".871"/><stop stop-color="#DE06B7" offset=".875"/><stop stop-color="#DF06B7" offset=".879"/><stop stop-color="#E006B7" offset=".883"/><stop stop-color="#E105B7" offset=".887"/><stop stop-color="#E105B7" offset=".891"/><stop stop-color="#E205B7" offset=".895"/><stop stop-color="#E305B7" offset=".898"/><stop stop-color="#E405B7" offset=".902"/><stop stop-color="#E505B7" offset=".906"/><stop stop-color="#E604B7" offset=".91"/><stop stop-color="#E704B7" offset=".914"/><stop stop-color="#E804B7" offset=".918"/><stop stop-color="#E904B7" offset=".922"/><stop stop-color="#EA04B7" offset=".926"/><stop stop-color="#EB04B7" offset=".93"/><stop stop-color="#EC03B7" offset=".934"/><stop stop-color="#ED03B7" offset=".938"/><stop stop-color="#EE03B7" offset=".941"/><stop stop-color="#EF03B7" offset=".945"/><stop stop-color="#F003B7" offset=".949"/><stop stop-color="#F103B8" offset=".953"/><stop stop-color="#F202B8" offset=".957"/><stop stop-color="#F302B8" offset=".961"/><stop stop-color="#F402B8" offset=".965"/><stop stop-color="#F402B8" offset=".969"/><stop stop-color="#F502B8" offset=".973"/><stop stop-color="#F602B8" offset=".977"/><stop stop-color="#F701B8" offset=".98"/><stop stop-color="#F801B8" offset=".984"/><stop stop-color="#F901B8" offset=".988"/><stop stop-color="#FA01B8" offset=".992"/><stop stop-color="#FB01B8" offset=".996"/><stop stop-color="#FC01B8" offset="1"/></linearGradient></defs><g clip-path="url(#a)"><path fill="url(#b)" d="M-37.5 -37.5H412.5V412.5H-37.5z"/></g><g clip-path="url(#c)"><path fill="#FFF" d="M 294.484375 276.523438 L 291.476562 277.296875 C 292.40625 288.882812 296.378906 347.710938 282.371094 362.308594 C 275.902344 369.054688 267.019531 369.703125 264.007812 369.714844 L 264.160156 378.097656 L 107.476562 378.097656 L 108.109375 364.914062 C 71.679688 354.195312 83.074219 285.808594 84.914062 275.976562 L 81.214844 274.777344 C 76.578125 273.273438 74.074219 268.261719 75.660156 263.652344 C 75.660156 263.652344 79.300781 232.566406 90.640625 210.601562 C 95.839844 200.53125 106.742188 192.925781 116.757812 187.605469 C 129.925781 180.601562 159.078125 172.261719 170.816406 169.050781 C 172.085938 159.589844 171.351562 149.3125 171.351562 149.3125 C 168.5625 146.449219 167.070312 141.457031 166.394531 135.59375 C 163.554688 137.105469 158.335938 132.269531 158.976562 124.492188 C 159.277344 120.832031 160.996094 119.683594 162.84375 119.550781 C 163.789062 119.480469 165.027344 119.328125 166.179688 119.164062 C 166.992188 105.757812 169.5625 93.320312 169.5625 93.320312 C 172.246094 85.578125 180.296875 80.515625 193.414062 80.515625 C 206.53125 80.515625 228.296875 85.28125 225.613281 118.042969 C 225.429688 120.28125 225.21875 122.410156 224.988281 124.429688 L 228.757812 128.925781 C 230.851562 129.605469 232.722656 131.570312 231.820312 136.71875 C 230.476562 144.390625 223.960938 146.523438 221.46875 143.964844 C 218.332031 155.730469 214.878906 159.4375 214.878906 159.4375 C 213.523438 164.378906 213.304688 168.011719 213.71875 170.894531 C 223.890625 173.683594 245.871094 180.113281 261.5 187.535156 C 272.832031 192.917969 285.347656 204.035156 290.617188 215.40625 C 299.207031 233.941406 299.753906 267.953125 299.753906 267.953125 C 300.597656 271.761719 298.265625 275.554688 294.484375 276.523438"/></g><path fill="#65CBC3" d="M 201.628906 256.996094 C 201.578125 256.996094 201.527344 256.992188 201.476562 256.984375 C 200.847656 256.898438 200.40625 256.328125 200.492188 255.699219 C 200.675781 254.308594 199.46875 253.648438 199.054688 253.464844 C 196.894531 253.347656 176.824219 252.257812 172.273438 252.015625 C 170.96875 251.945312 169.984375 252.203125 169.429688 252.75 C 168.828125 253.347656 168.839844 254.15625 168.839844 254.167969 C 168.871094 254.796875 168.382812 255.332031 167.75 255.363281 C 167.085938 255.378906 166.578125 254.90625 166.550781 254.273438 C 166.539062 254.089844 166.503906 252.433594 167.8125 251.128906 C 168.855469 250.09375 170.398438 249.628906 172.394531 249.730469 C 177.203125 249.988281 199.367188 251.191406 199.367188 251.191406 C 199.476562 251.195312 199.585938 251.21875 199.691406 251.253906 C 200.914062 251.6875 203.128906 253.238281 202.761719 256 C 202.683594 256.578125 202.191406 256.996094 201.628906 256.996094 Z M 172.289062 256.164062 C 171.152344 256.164062 170.230469 255.53125 170.230469 254.75 C 170.230469 253.964844 171.152344 253.332031 172.289062 253.332031 C 173.429688 253.332031 174.351562 253.964844 174.351562 254.75 C 174.351562 255.53125 173.429688 256.164062 172.289062 256.164062 Z M 198.996094 250.5625 L 170.824219 249.246094 C 168.460938 249.132812 166.476562 251.011719 166.460938 253.375 L 166.320312 271.773438 C 173.480469 272.109375 180.535156 272.640625 180.535156 272.640625 C 180.535156 272.640625 182.082031 268.136719 189.039062 269.164062 C 191.828125 269.578125 196.925781 269.742188 202.234375 269.789062 L 202.96875 254.929688 C 203.078125 252.628906 201.300781 250.671875 198.996094 250.5625"/><path fill="#312E5F" d="M 207.164062 125.863281 C 206.21875 126.8125 206.21875 128.347656 207.164062 129.296875 C 208.113281 130.242188 209.65625 130.242188 210.605469 129.296875 C 211.550781 128.347656 211.550781 126.8125 210.605469 125.863281 C 209.65625 124.917969 208.113281 124.917969 207.164062 125.863281 Z M 184.1875 123.808594 C 183.238281 124.753906 183.238281 126.289062 184.1875 127.238281 C 185.136719 128.1875 186.675781 128.1875 187.625 127.238281 C 188.574219 126.289062 188.574219 124.753906 187.625 123.808594 C 186.675781 122.855469 185.136719 122.855469 184.1875 123.808594 Z M 172.160156 108.144531 C 173.609375 111.90625 172.453125 117.210938 171.164062 121.136719 L 175.125 122.925781 C 177.023438 119.863281 180.410156 117.8125 184.273438 117.8125 C 188.929688 117.8125 192.886719 120.78125 194.386719 124.921875 C 195.949219 124.570312 198.28125 124.308594 200.332031 125.136719 C 200.394531 124.898438 200.457031 124.660156 200.515625 124.417969 C 200.6875 123.761719 200.796875 123.097656 200.949219 122.4375 C 201.023438 122.109375 201.125 121.78125 201.230469 121.457031 L 201.414062 120.976562 C 201.476562 120.816406 201.613281 120.671875 202.054688 120.585938 C 202.429688 120.832031 202.503906 121.015625 202.503906 121.183594 L 202.5 121.695312 C 202.484375 122.035156 202.460938 122.371094 202.414062 122.703125 C 202.351562 123.175781 202.28125 123.644531 202.222656 124.117188 C 204.1875 122.039062 206.964844 120.730469 210.042969 120.730469 C 214.636719 120.730469 218.554688 123.625 220.097656 127.675781 L 223.582031 126.832031 C 219.714844 113.015625 198.90625 109.105469 182.984375 105.828125 C 177.378906 104.675781 174.390625 101.652344 172.910156 98.074219 C 171.730469 100.984375 170.859375 104.761719 172.160156 108.144531 Z M 218.519531 131.484375 C 218.519531 130.945312 218.464844 130.414062 218.367188 129.898438 C 218.214844 129.75 218.089844 129.570312 218.035156 129.351562 C 217.988281 129.144531 218 128.941406 218.058594 128.753906 C 216.917969 125.421875 213.761719 123.019531 210.042969 123.019531 C 206.945312 123.019531 204.234375 124.695312 202.753906 127.1875 C 202.816406 127.546875 202.699219 127.929688 202.414062 128.199219 C 202.339844 128.265625 202.257812 128.320312 202.171875 128.367188 C 201.789062 129.335938 201.566406 130.382812 201.566406 131.484375 C 201.566406 136.15625 205.371094 139.949219 210.042969 139.949219 C 214.71875 139.949219 218.519531 136.15625 218.519531 131.484375 Z M 192.75 128.566406 C 192.75 128.238281 192.726562 127.914062 192.6875 127.59375 C 192.371094 127.492188 192.097656 127.257812 191.96875 126.925781 C 191.796875 126.484375 191.914062 126.003906 192.234375 125.691406 C 191.050781 122.4375 187.933594 120.101562 184.273438 120.101562 C 179.601562 120.101562 175.796875 123.898438 175.796875 128.566406 C 175.796875 133.238281 179.601562 137.03125 184.273438 137.03125 C 188.949219 137.03125 192.75 133.238281 192.75 128.566406 Z M 162.785156 119.558594 C 161.40625 106.027344 160.949219 83.757812 172.71875 82.988281 C 173.378906 81.136719 174.769531 79.625 176.585938 78.792969 C 194.507812 70.582031 214.84375 72.207031 224.132812 79.3125 C 225.425781 80.300781 219.207031 82.085938 220.351562 83.261719 C 224.207031 87.210938 227.625 88.949219 229.953125 93.585938 C 232.890625 96.582031 235.296875 101.234375 234.613281 108.316406 C 233.820312 116.496094 231.46875 123.558594 229 129.015625 C 228.085938 128.667969 227.113281 128.589844 226.292969 128.613281 C 225.09375 130.359375 224.21875 131.3125 224.21875 131.3125 C 224.207031 130.542969 224.136719 129.800781 224.035156 129.078125 L 220.679688 129.890625 C 220.757812 130.414062 220.808594 130.941406 220.808594 131.484375 C 220.808594 137.417969 215.980469 142.238281 210.042969 142.238281 C 205.929688 142.238281 202.347656 139.917969 200.535156 136.519531 C 200.527344 136.53125 200.519531 136.535156 200.511719 136.546875 C 200.269531 136.585938 200.09375 136.542969 199.964844 136.464844 C 199.859375 136.398438 199.792969 136.308594 199.761719 136.210938 C 199.683594 136.019531 199.621094 135.835938 199.566406 135.652344 C 199.46875 135.292969 199.394531 134.933594 199.355469 134.582031 C 199.265625 133.867188 199.273438 133.171875 199.273438 132.480469 C 199.28125 132.238281 199.285156 131.996094 199.292969 131.753906 C 199.289062 131.664062 199.277344 131.574219 199.277344 131.484375 C 199.277344 131.035156 199.316406 130.597656 199.367188 130.164062 C 199.414062 129.566406 199.476562 128.972656 199.589844 128.390625 C 199.648438 128.058594 199.710938 127.730469 199.78125 127.402344 C 198.253906 126.625 196.269531 126.847656 194.933594 127.148438 C 194.996094 127.613281 195.039062 128.085938 195.039062 128.566406 C 195.039062 134.496094 190.210938 139.320312 184.273438 139.320312 C 178.335938 139.320312 173.507812 134.496094 173.507812 128.566406 C 173.507812 127.3125 173.734375 126.109375 174.132812 124.988281 L 170.394531 123.300781 C 170.003906 124.320312 169.648438 125.152344 169.402344 125.699219 C 169.269531 124.105469 168.769531 122.535156 167.78125 120.886719 C 167.78125 120.886719 165.167969 119.359375 162.785156 119.558594 Z M 192.1875 138.332031 C 192.503906 138.660156 192.894531 138.898438 193.269531 139.160156 C 194.03125 139.664062 194.929688 140.035156 195.835938 140.113281 C 196.757812 140.246094 197.625 139.972656 198.441406 139.726562 C 198.832031 139.566406 199.238281 139.433594 199.605469 139.230469 C 199.78125 139.121094 199.957031 138.992188 200.125 138.867188 L 200.375 138.667969 C 200.460938 138.613281 200.515625 138.46875 200.425781 138.007812 C 200.148438 137.613281 200.019531 137.539062 199.925781 137.554688 L 199.628906 137.5625 C 199.433594 137.574219 199.242188 137.585938 199.058594 137.613281 C 198.6875 137.644531 198.332031 137.710938 197.980469 137.765625 C 197.273438 137.816406 196.589844 137.8125 195.949219 137.835938 C 195.308594 137.84375 194.644531 137.878906 194.019531 137.679688 C 193.707031 137.582031 193.425781 137.40625 193.167969 137.214844 C 193.035156 137.121094 192.890625 137.03125 192.75 136.941406 C 192.675781 136.898438 192.59375 136.855469 192.527344 136.808594 C 192.449219 136.757812 192.324219 136.769531 191.917969 136.894531 C 191.609375 137.179688 191.589844 137.355469 191.632812 137.460938 C 191.675781 137.570312 191.726562 137.679688 191.777344 137.78125 C 191.890625 137.984375 192.023438 138.171875 192.1875 138.332031 Z M 203.703125 119.671875 L 204.066406 119.65625 C 204.300781 119.625 204.546875 119.632812 204.78125 119.601562 C 205.246094 119.53125 205.722656 119.5 206.199219 119.503906 C 207.160156 119.566406 208.105469 119.757812 209.050781 119.894531 C 209.992188 120.074219 210.960938 120.117188 211.929688 120.253906 C 212.417969 120.316406 212.898438 120.414062 213.390625 120.46875 C 213.636719 120.5 213.886719 120.519531 214.140625 120.535156 L 214.519531 120.554688 C 214.640625 120.574219 214.789062 120.515625 215.070312 120.117188 C 215.113281 119.628906 215.019531 119.484375 214.902344 119.421875 L 214.566406 119.207031 C 214.335938 119.074219 214.101562 118.941406 213.863281 118.835938 C 213.386719 118.609375 212.886719 118.453125 212.386719 118.289062 C 211.386719 117.976562 210.359375 117.671875 209.292969 117.625 C 208.230469 117.558594 207.148438 117.679688 206.089844 117.851562 C 205.5625 117.964844 205.03125 117.992188 204.503906 118.140625 C 204.242188 118.210938 203.984375 118.28125 203.738281 118.414062 L 203.378906 118.613281 C 203.257812 118.679688 203.160156 118.816406 203.175781 119.246094 C 203.433594 119.605469 203.578125 119.675781 203.703125 119.671875 Z M 190.445312 145.082031 C 189.851562 144.933594 189.285156 144.683594 188.707031 144.484375 C 188.136719 144.261719 187.582031 143.992188 187.019531 143.753906 L 186.984375 143.738281 C 186.886719 143.699219 186.78125 143.671875 186.671875 143.660156 C 186.109375 143.613281 185.613281 144.03125 185.5625 144.597656 C 185.511719 145.222656 185.539062 145.695312 185.605469 146.234375 C 185.675781 146.757812 185.796875 147.277344 185.96875 147.78125 C 186.300781 148.800781 186.90625 149.753906 187.6875 150.507812 C 188.464844 151.269531 189.414062 151.8125 190.375 152.1875 C 191.351562 152.542969 192.335938 152.730469 193.332031 152.824219 C 195.316406 153.027344 197.480469 152.601562 199.15625 151.410156 C 200.003906 150.835938 200.6875 150.066406 201.226562 149.238281 C 201.492188 148.820312 201.71875 148.378906 201.898438 147.929688 C 202.082031 147.484375 202.289062 147.007812 201.902344 146.390625 C 201.246094 146.660156 201.089844 147.027344 200.859375 147.402344 C 200.625 147.769531 200.378906 148.121094 200.113281 148.449219 C 199.585938 149.117188 198.976562 149.699219 198.296875 150.148438 C 196.929688 151.070312 195.21875 151.28125 193.578125 150.957031 C 191.910156 150.636719 190.355469 149.957031 189.316406 148.875 C 188.792969 148.332031 188.386719 147.703125 188.078125 146.996094 C 187.984375 146.765625 187.90625 146.523438 187.839844 146.28125 C 187.898438 146.304688 187.957031 146.328125 188.015625 146.347656 C 188.652344 146.542969 189.273438 146.785156 189.921875 146.929688 C 191.203125 147.296875 192.527344 147.484375 193.851562 147.597656 C 195.179688 147.703125 196.515625 147.660156 197.832031 147.484375 C 198.488281 147.402344 199.140625 147.261719 199.78125 147.105469 C 200.425781 146.957031 201.082031 146.714844 201.511719 146.007812 C 200.746094 145.746094 200.160156 145.804688 199.546875 145.914062 C 198.9375 145.992188 198.320312 146.050781 197.707031 146.0625 C 196.476562 146.101562 195.246094 146.039062 194.03125 145.878906 C 193.425781 145.773438 192.816406 145.703125 192.222656 145.542969 L 191.328125 145.339844 Z M 180.675781 117.585938 L 181.023438 117.476562 C 181.234375 117.375 181.480469 117.351562 181.695312 117.269531 C 181.914062 117.1875 182.128906 117.101562 182.363281 117.074219 C 182.59375 117.03125 182.816406 116.96875 183.058594 116.960938 C 184.003906 116.910156 184.953125 117.113281 185.894531 117.269531 C 186.835938 117.460938 187.8125 117.585938 188.789062 117.816406 C 189.277344 117.925781 189.753906 118.074219 190.25 118.1875 C 190.5 118.242188 190.75 118.300781 191.007812 118.347656 L 191.390625 118.417969 C 191.515625 118.457031 191.671875 118.414062 192.003906 118.054688 C 192.109375 117.578125 192.027344 117.421875 191.914062 117.339844 L 191.589844 117.078125 C 191.363281 116.917969 191.140625 116.75 190.902344 116.613281 C 190.429688 116.332031 189.925781 116.113281 189.417969 115.902344 C 188.402344 115.484375 187.34375 115.078125 186.203125 115.011719 C 185.070312 114.914062 183.902344 115.019531 182.78125 115.328125 C 182.5 115.390625 182.222656 115.503906 181.945312 115.578125 C 181.664062 115.644531 181.394531 115.753906 181.128906 115.890625 C 180.871094 116.027344 180.605469 116.144531 180.390625 116.359375 L 180.070312 116.664062 C 179.964844 116.765625 179.902344 116.933594 180.042969 117.335938 C 180.402344 117.597656 180.558594 117.625 180.675781 117.585938 Z M 161.644531 181.167969 L 162.207031 180.910156 C 162.574219 180.730469 162.949219 180.550781 163.308594 180.355469 C 164.007812 179.917969 164.679688 179.441406 165.347656 178.953125 C 166.632812 177.910156 167.953125 176.839844 168.902344 175.421875 C 169.890625 174.054688 170.636719 172.496094 171.117188 170.871094 C 171.355469 170.058594 171.585938 169.242188 171.6875 168.394531 C 171.753906 167.976562 171.746094 167.542969 171.726562 167.117188 C 171.703125 166.902344 171.683594 166.6875 171.640625 166.472656 C 171.605469 166.265625 171.484375 166.035156 171.042969 165.894531 C 170.660156 166.148438 170.5625 166.316406 170.535156 166.507812 C 170.519531 166.691406 170.46875 166.875 170.441406 167.058594 C 170.371094 167.425781 170.304688 167.792969 170.21875 168.15625 C 170.085938 168.890625 169.847656 169.605469 169.558594 170.296875 C 168.933594 171.664062 168.019531 172.875 167.085938 174.039062 L 166.367188 174.910156 C 166.109375 175.183594 165.855469 175.464844 165.613281 175.753906 C 165.140625 176.347656 164.5625 176.859375 164.039062 177.417969 C 163.472656 177.941406 162.875 178.429688 162.3125 178.972656 C 162.011719 179.222656 161.71875 179.484375 161.425781 179.75 L 160.996094 180.160156 C 160.84375 180.289062 160.738281 180.484375 160.820312 180.996094 C 161.238281 181.285156 161.464844 181.261719 161.644531 181.167969 Z M 214.71875 161.96875 L 214.691406 161.214844 C 214.691406 160.96875 214.609375 160.707031 214.167969 160.402344 C 213.675781 160.59375 213.546875 160.835938 213.5 161.085938 L 213.328125 161.828125 C 213.21875 162.324219 213.113281 162.824219 213.027344 163.324219 C 212.820312 164.328125 212.8125 165.351562 212.703125 166.367188 C 212.542969 168.402344 212.5 170.476562 212.804688 172.539062 C 213.144531 174.597656 213.71875 176.65625 214.769531 178.535156 C 215.058594 178.996094 215.277344 179.484375 215.636719 179.90625 C 215.804688 180.125 215.960938 180.347656 216.132812 180.558594 L 216.71875 181.152344 C 217.128906 181.523438 217.597656 181.847656 218.117188 182.082031 C 218.363281 182.210938 218.652344 182.273438 218.917969 182.363281 C 219.191406 182.425781 219.53125 182.414062 219.835938 182.027344 C 219.734375 181.8125 219.65625 181.644531 219.570312 181.550781 C 219.488281 181.433594 219.398438 181.371094 219.296875 181.328125 C 219.113281 181.199219 218.917969 181.113281 218.746094 180.960938 C 218.386719 180.707031 218.0625 180.398438 217.753906 180.082031 C 217.113281 179.457031 216.648438 178.640625 216.257812 177.800781 C 215.535156 176.074219 215.300781 174.148438 215.070312 172.253906 C 215.019531 171.285156 214.878906 170.335938 214.847656 169.359375 C 214.800781 168.382812 214.691406 167.410156 214.71875 166.425781 C 214.734375 165.441406 214.6875 164.453125 214.726562 163.460938 C 214.734375 162.964844 214.726562 162.46875 214.71875 161.96875 Z M 158.757812 183.871094 C 159.382812 185.769531 160.148438 187.621094 161.015625 189.421875 C 162.773438 193.019531 164.949219 196.445312 167.683594 199.433594 C 169.035156 200.9375 170.527344 202.339844 172.183594 203.535156 C 173.832031 204.730469 175.597656 205.808594 177.507812 206.578125 C 179.410156 207.359375 181.398438 207.960938 183.441406 208.242188 C 184.453125 208.441406 185.480469 208.46875 186.507812 208.554688 C 187.019531 208.59375 187.535156 208.558594 188.046875 208.5625 C 188.554688 208.546875 189.074219 208.578125 189.582031 208.523438 C 191.632812 208.351562 193.628906 208.070312 195.605469 207.609375 C 197.59375 207.195312 199.535156 206.570312 201.429688 205.84375 C 203.316406 205.089844 205.148438 204.191406 206.90625 203.167969 C 208.644531 202.109375 210.304688 200.925781 211.855469 199.613281 C 214.941406 196.96875 217.574219 193.820312 219.613281 190.339844 C 220.644531 188.605469 221.507812 186.78125 222.238281 184.910156 C 222.601562 183.972656 222.925781 183.023438 223.21875 182.058594 C 223.511719 181.105469 223.699219 180.09375 223.445312 179.023438 C 222.777344 179.882812 222.40625 180.765625 222.082031 181.683594 C 221.742188 182.59375 221.375 183.492188 220.96875 184.371094 C 220.160156 186.136719 219.199219 187.824219 218.167969 189.453125 C 216.074219 192.695312 213.53125 195.640625 210.5625 198.066406 C 204.628906 202.976562 197.027344 205.546875 189.421875 206.246094 C 188.949219 206.3125 188.476562 206.289062 188 206.316406 C 187.527344 206.320312 187.050781 206.367188 186.578125 206.339844 C 185.632812 206.277344 184.679688 206.277344 183.75 206.113281 C 181.867188 205.898438 180.035156 205.382812 178.269531 204.707031 C 176.492188 204.054688 174.828125 203.105469 173.253906 202.039062 C 171.671875 200.972656 170.230469 199.695312 168.898438 198.304688 C 166.226562 195.523438 164.105469 192.230469 162.34375 188.769531 C 161.460938 187.035156 160.675781 185.25 159.945312 183.441406 C 159.578125 182.535156 159.253906 181.613281 158.9375 180.691406 C 158.625 179.765625 158.265625 178.863281 157.644531 177.992188 C 157.457031 179.050781 157.617188 180.054688 157.882812 181.011719 C 158.152344 181.972656 158.433594 182.929688 158.757812 183.871094 Z M 179.617188 160.058594 C 179.035156 159.476562 178.46875 158.882812 177.898438 158.285156 L 177.046875 157.390625 C 176.765625 157.085938 176.4375 156.828125 175.855469 156.730469 C 175.761719 157.316406 175.941406 157.726562 176.179688 158.074219 C 176.417969 158.425781 176.664062 158.773438 176.914062 159.117188 C 177.421875 159.800781 177.976562 160.445312 178.546875 161.078125 C 179.703125 162.328125 180.945312 163.503906 182.269531 164.601562 C 183.582031 165.710938 185.007812 166.71875 186.570312 167.542969 C 187.351562 167.949219 188.175781 168.296875 189.03125 168.59375 C 189.894531 168.855469 190.785156 169.058594 191.703125 169.160156 C 192.605469 169.238281 193.597656 169.230469 194.429688 169.101562 C 194.863281 169.046875 195.296875 169.015625 195.726562 168.933594 L 197.003906 168.683594 C 198.695312 168.296875 200.351562 167.796875 201.953125 167.183594 C 203.554688 166.558594 205.117188 165.859375 206.605469 165.015625 C 207.355469 164.613281 208.078125 164.148438 208.785156 163.679688 C 209.136719 163.433594 209.484375 163.191406 209.828125 162.933594 C 210.175781 162.695312 210.484375 162.367188 210.5625 161.738281 C 209.945312 161.589844 209.558594 161.722656 209.191406 161.921875 C 208.828125 162.113281 208.457031 162.289062 208.085938 162.472656 C 207.34375 162.824219 206.597656 163.167969 205.84375 163.503906 C 204.339844 164.160156 202.828125 164.777344 201.277344 165.285156 C 199.726562 165.785156 198.148438 166.179688 196.5625 166.46875 C 195.769531 166.585938 194.976562 166.722656 194.179688 166.796875 C 193.355469 166.914062 192.664062 166.925781 191.902344 166.886719 C 188.890625 166.667969 185.910156 165.199219 183.296875 163.296875 C 181.988281 162.332031 180.777344 161.21875 179.617188 160.058594 Z M 97.703125 236.054688 C 97.941406 236.421875 98.171875 236.800781 98.421875 237.160156 C 98.917969 237.882812 99.40625 238.613281 99.84375 239.378906 C 100.691406 240.917969 101.425781 242.515625 102.148438 244.101562 C 102.84375 245.703125 103.660156 247.25 104.3125 248.878906 C 104.671875 249.679688 104.941406 250.511719 105.28125 251.324219 L 105.78125 252.554688 L 106.042969 253.171875 C 106.117188 253.378906 106.273438 253.566406 106.792969 253.675781 C 107.195312 253.355469 107.238281 253.109375 107.203125 252.882812 L 107.132812 252.199219 C 107.074219 251.746094 107.023438 251.289062 106.917969 250.84375 C 106.726562 249.953125 106.496094 249.066406 106.214844 248.195312 C 105.691406 246.445312 105.066406 244.710938 104.199219 243.09375 C 103.363281 241.464844 102.3125 239.953125 101.238281 238.484375 C 100.710938 237.738281 100.175781 237 99.621094 236.277344 C 99.332031 235.921875 99.035156 235.578125 98.707031 235.253906 C 98.546875 235.089844 98.375 234.933594 98.203125 234.78125 C 98.039062 234.621094 97.800781 234.515625 97.339844 234.628906 C 97.179688 235.074219 97.238281 235.300781 97.359375 235.488281 Z M 105.785156 271.535156 C 106.398438 271.75 107.023438 271.9375 107.644531 272.128906 L 108.585938 272.402344 C 108.894531 272.503906 109.234375 272.527344 109.710938 272.210938 C 109.585938 271.652344 109.324219 271.433594 109.035156 271.289062 L 108.167969 270.835938 C 107.589844 270.539062 107.011719 270.242188 106.421875 269.96875 C 105.25 269.402344 104.058594 268.886719 102.875 268.359375 C 100.496094 267.316406 98.140625 266.226562 95.707031 265.320312 C 93.289062 264.386719 90.824219 263.558594 88.375 262.691406 C 87.15625 262.242188 85.949219 261.773438 84.734375 261.3125 C 84.128906 261.082031 83.515625 260.875 82.894531 260.675781 L 81.957031 260.394531 C 81.644531 260.300781 81.304688 260.277344 80.847656 260.542969 C 80.992188 261.046875 81.253906 261.269531 81.542969 261.417969 L 82.410156 261.867188 C 82.996094 262.152344 83.582031 262.433594 84.175781 262.6875 C 85.371094 263.199219 86.566406 263.699219 87.753906 264.226562 C 90.117188 265.304688 92.460938 266.421875 94.851562 267.433594 C 97.230469 268.472656 99.683594 269.328125 102.117188 270.230469 C 103.335938 270.671875 104.550781 271.132812 105.785156 271.535156 Z M 269.109375 252.332031 L 269.894531 251.511719 C 270.425781 250.96875 270.933594 250.414062 271.394531 249.816406 C 271.867188 249.226562 272.355469 248.648438 272.8125 248.046875 L 274.125 246.199219 C 275.855469 243.726562 277.503906 241.179688 278.824219 238.464844 C 280.183594 235.769531 281.328125 232.972656 282.367188 230.148438 C 282.890625 228.742188 283.429688 227.335938 283.90625 225.910156 C 284.140625 225.195312 284.371094 224.480469 284.550781 223.75 C 284.648438 223.382812 284.726562 223.015625 284.8125 222.648438 C 284.898438 222.28125 284.90625 221.882812 284.605469 221.414062 C 284.105469 221.65625 283.898438 221.976562 283.757812 222.320312 L 283.332031 223.347656 L 282.515625 225.410156 L 281.707031 227.476562 L 280.832031 229.515625 C 279.605469 232.210938 278.199219 234.816406 276.800781 237.410156 C 275.386719 239.996094 274.003906 242.59375 272.445312 245.09375 L 271.269531 246.964844 C 270.84375 247.566406 270.445312 248.1875 270.039062 248.804688 L 269.433594 249.730469 L 268.804688 250.644531 L 268.183594 251.566406 C 267.964844 251.871094 267.816406 252.222656 267.941406 252.820312 C 268.535156 252.835938 268.851562 252.605469 269.109375 252.332031 Z M 296.019531 261.113281 L 294.925781 261.15625 C 294.203125 261.21875 293.484375 261.3125 292.765625 261.417969 C 292.046875 261.511719 291.347656 261.667969 290.640625 261.816406 C 289.933594 261.957031 289.230469 262.128906 288.539062 262.3125 C 285.746094 263.011719 282.988281 263.816406 280.324219 264.871094 C 277.652344 265.894531 275.054688 267.101562 272.476562 268.316406 L 268.589844 270.09375 C 267.941406 270.398438 267.3125 270.730469 266.679688 271.070312 L 265.75 271.597656 C 265.441406 271.777344 265.160156 272.023438 265.019531 272.554688 C 265.519531 272.773438 265.886719 272.722656 266.21875 272.597656 L 267.21875 272.238281 C 267.882812 271.988281 268.542969 271.722656 269.195312 271.453125 C 270.496094 270.902344 271.800781 270.351562 273.125 269.84375 C 275.773438 268.84375 278.453125 267.941406 281.113281 267.015625 C 283.78125 266.105469 286.402344 265.078125 289.085938 264.25 C 289.753906 264.03125 290.421875 263.824219 291.097656 263.644531 C 291.773438 263.476562 292.441406 263.226562 293.117188 263.074219 C 293.796875 262.914062 294.46875 262.707031 295.144531 262.535156 L 296.167969 262.300781 C 296.511719 262.234375 296.839844 262.085938 297.148438 261.570312 C 296.753906 261.144531 296.378906 261.089844 296.019531 261.113281 Z M 281.453125 332.308594 C 281.367188 331.84375 281.316406 331.363281 281.144531 330.917969 C 280.855469 330.007812 280.53125 329.105469 280.058594 328.265625 C 279.65625 327.386719 279.105469 326.59375 278.570312 325.785156 C 277.96875 325.03125 277.34375 324.277344 276.597656 323.664062 C 275.15625 322.371094 273.472656 321.394531 271.734375 320.644531 C 270.867188 320.265625 270 319.894531 269.101562 319.605469 C 268.652344 319.464844 268.191406 319.351562 267.726562 319.273438 C 267.496094 319.226562 267.253906 319.210938 267.019531 319.179688 C 266.785156 319.15625 266.519531 319.210938 266.222656 319.578125 C 266.375 320.027344 266.554688 320.171875 266.761719 320.257812 C 266.96875 320.339844 267.175781 320.417969 267.378906 320.507812 L 268.601562 321.007812 C 269.011719 321.164062 269.410156 321.347656 269.816406 321.515625 L 270.980469 322.117188 C 272.492188 323.011719 273.828125 324.140625 275.039062 325.332031 C 276.238281 326.535156 277.410156 327.785156 278.304688 329.257812 C 278.804688 329.964844 279.136719 330.757812 279.554688 331.527344 C 279.78125 331.90625 279.929688 332.320312 280.117188 332.71875 L 280.398438 333.324219 C 280.480469 333.53125 280.648438 333.710938 281.171875 333.820312 C 281.566406 333.496094 281.601562 333.242188 281.554688 333.007812 Z M 226.800781 272.578125 C 226.238281 271.949219 225.644531 271.3125 225.035156 270.679688 C 224.371094 270.039062 223.628906 269.457031 222.789062 269.023438 C 221.945312 268.59375 221.039062 268.3125 220.152344 268.148438 C 219.265625 267.984375 218.398438 267.917969 217.589844 267.8125 C 216.777344 267.703125 216.023438 267.542969 215.347656 267.234375 C 214.660156 266.933594 214.152344 266.472656 213.332031 265.90625 C 211.800781 264.921875 210.152344 264.304688 208.480469 263.84375 C 207.648438 263.617188 206.808594 263.410156 205.964844 263.246094 C 205.121094 263.078125 204.25 263.007812 203.34375 263.289062 C 204.113281 263.828125 204.902344 264.101562 205.714844 264.316406 C 206.523438 264.53125 207.320312 264.78125 208.105469 265.050781 C 209.664062 265.609375 211.203125 266.246094 212.507812 267.132812 L 213.492188 267.882812 C 213.859375 268.179688 214.285156 268.414062 214.714844 268.621094 C 215.582031 269.027344 216.503906 269.226562 217.371094 269.351562 C 219.105469 269.582031 220.679688 269.746094 222.007812 270.484375 C 222.660156 270.855469 223.246094 271.347656 223.78125 271.902344 C 224.328125 272.507812 224.871094 273.132812 225.414062 273.789062 L 228.644531 277.699219 L 235.082031 285.5625 C 239.390625 290.792969 243.792969 295.949219 248.1875 301.109375 C 250.386719 303.691406 252.570312 306.285156 254.800781 308.839844 C 255.898438 310.132812 257.035156 311.390625 258.160156 312.660156 L 259.847656 314.5625 C 260.402344 315.203125 261.023438 315.792969 261.929688 316.144531 C 261.753906 315.191406 261.296875 314.46875 260.773438 313.804688 L 259.222656 311.785156 C 258.1875 310.441406 257.164062 309.089844 256.105469 307.765625 C 254.011719 305.097656 251.871094 302.464844 249.742188 299.828125 C 245.484375 294.546875 241.222656 289.273438 236.835938 284.101562 L 230.1875 276.394531 Z M 248.660156 357.914062 C 244.761719 353.636719 241.359375 348.914062 238.308594 343.976562 C 235.253906 339.042969 232.515625 333.90625 230.042969 328.644531 C 227.582031 323.386719 225.320312 317.988281 223.433594 312.542969 C 223.289062 312.136719 222.910156 311.835938 222.457031 311.8125 C 214.824219 311.445312 207.175781 310.984375 199.59375 310.289062 C 198.644531 310.203125 197.703125 310.097656 196.761719 309.992188 C 195.863281 309.886719 195 309.710938 194.132812 309.460938 C 192.40625 308.96875 190.734375 308.191406 189.148438 307.273438 C 187.558594 306.34375 186.050781 305.253906 184.621094 304.070312 C 183.199219 302.890625 181.808594 301.578125 180.617188 300.238281 L 180.597656 300.214844 C 180.542969 300.15625 180.484375 300.101562 180.417969 300.054688 C 180.359375 300.011719 180.300781 299.980469 180.242188 299.953125 C 180.089844 299.6875 179.960938 299.609375 179.832031 299.597656 L 179.394531 299.550781 C 179.105469 299.535156 178.8125 299.527344 178.523438 299.542969 C 177.949219 299.570312 177.375 299.632812 176.800781 299.640625 C 175.640625 299.648438 174.480469 299.613281 173.332031 299.695312 C 172.175781 299.742188 171.042969 299.988281 169.90625 300.191406 C 169.339844 300.296875 168.769531 300.382812 168.207031 300.53125 C 167.921875 300.597656 167.644531 300.683594 167.363281 300.773438 L 166.945312 300.917969 C 166.804688 300.953125 166.671875 301.074219 166.578125 301.558594 C 166.773438 302.011719 166.925781 302.101562 167.070312 302.105469 L 167.511719 302.160156 C 167.804688 302.191406 168.09375 302.214844 168.386719 302.21875 C 168.96875 302.246094 169.542969 302.207031 170.121094 302.195312 C 171.273438 302.152344 172.433594 302.15625 173.570312 301.964844 C 174.710938 301.800781 175.839844 301.519531 176.972656 301.285156 C 177.398438 301.203125 177.820312 301.144531 178.246094 301.085938 C 177.136719 302.464844 175.835938 303.699219 174.347656 304.695312 C 172.597656 305.886719 170.628906 306.777344 168.578125 307.421875 C 166.519531 308.0625 164.375 308.464844 162.207031 308.65625 C 160.050781 308.851562 157.8125 308.875 155.714844 308.65625 L 155.679688 308.648438 C 155.199219 308.601562 154.746094 308.914062 154.628906 309.394531 C 153.160156 315.605469 151.347656 321.734375 149.035156 327.671875 C 146.734375 333.613281 143.808594 339.304688 140.277344 344.585938 C 136.6875 349.808594 132.421875 354.625 127.273438 358.320312 C 124.726562 360.1875 121.949219 361.746094 119.03125 362.960938 C 117.566406 363.554688 116.0625 364.035156 114.539062 364.449219 C 113.011719 364.871094 111.484375 365.261719 109.882812 365.570312 C 111.5 365.859375 113.160156 365.71875 114.765625 365.429688 C 116.371094 365.121094 117.929688 364.613281 119.460938 364.050781 C 122.507812 362.867188 125.40625 361.324219 128.085938 359.453125 C 130.746094 357.570312 133.21875 355.414062 135.453125 353.054688 C 137.691406 350.6875 139.703125 348.125 141.570312 345.464844 C 145.214844 340.09375 148.199219 334.300781 150.617188 328.300781 C 152.9375 322.566406 154.792969 316.652344 156.324219 310.671875 C 158.367188 310.855469 160.359375 310.847656 162.378906 310.691406 C 164.675781 310.507812 166.96875 310.101562 169.195312 309.429688 C 171.421875 308.757812 173.589844 307.804688 175.558594 306.492188 C 177.152344 305.445312 178.589844 304.148438 179.828125 302.675781 C 182.25 305.242188 184.941406 307.445312 187.988281 309.253906 C 189.707031 310.25 191.535156 311.109375 193.492188 311.671875 C 194.464844 311.953125 195.480469 312.160156 196.492188 312.28125 C 197.453125 312.390625 198.410156 312.496094 199.371094 312.585938 C 203.207031 312.960938 207.039062 313.1875 210.871094 313.414062 C 214.464844 313.613281 218.058594 313.785156 221.65625 313.925781 C 223.59375 319.253906 225.8125 324.410156 228.25 329.496094 C 230.804688 334.789062 233.601562 339.976562 236.777344 344.941406 C 239.960938 349.890625 243.46875 354.667969 247.589844 358.921875 C 249.640625 361.046875 251.84375 363.042969 254.21875 364.816406 C 256.582031 366.585938 259.167969 368.191406 262.097656 368.832031 C 259.675781 367.109375 257.253906 365.617188 254.972656 363.832031 C 252.710938 362.046875 250.609375 360.046875 248.660156 357.914062 Z M 121.984375 301.757812 L 134.035156 288.925781 C 138.070312 284.691406 142.027344 280.292969 146.265625 276.410156 L 146.339844 276.335938 C 147.613281 275.054688 149.140625 273.835938 150.6875 272.753906 C 152.25 271.675781 153.878906 270.6875 155.585938 269.835938 C 157.296875 268.996094 159.050781 268.246094 160.871094 267.65625 C 161.78125 267.367188 162.699219 267.101562 163.632812 266.890625 C 164.570312 266.675781 165.492188 266.441406 166.40625 265.863281 C 165.386719 265.515625 164.375 265.542969 163.402344 265.722656 C 162.421875 265.878906 161.453125 266.097656 160.488281 266.339844 C 158.566406 266.84375 156.671875 267.484375 154.863281 268.316406 C 153.050781 269.144531 151.289062 270.089844 149.632812 271.203125 C 147.960938 272.320312 146.394531 273.496094 144.894531 274.949219 L 144.96875 274.878906 C 143.847656 275.875 142.710938 276.863281 141.667969 277.898438 C 140.589844 278.917969 139.539062 279.957031 138.503906 281.003906 C 136.414062 283.089844 134.363281 285.195312 132.355469 287.347656 C 128.304688 291.617188 124.40625 296.015625 120.484375 300.394531 L 108.835938 313.628906 C 106.878906 315.820312 104.9375 318.027344 103.011719 320.246094 L 100.167969 323.609375 C 99.234375 324.75 98.179688 325.78125 97.683594 327.300781 C 99.136719 326.621094 100.03125 325.457031 101.054688 324.398438 L 104.0625 321.183594 L 109.992188 314.664062 C 113.941406 310.320312 117.960938 306.039062 121.984375 301.757812 Z M 224.5625 297.003906 L 224.46875 296.839844 C 224.453125 296.785156 224.339844 296.722656 223.875 296.667969 C 223.40625 296.710938 223.289062 296.75 223.273438 296.796875 L 223.167969 296.929688 C 223.101562 297.019531 223.039062 297.109375 222.992188 297.195312 C 222.894531 297.371094 222.847656 297.546875 222.777344 297.71875 C 222.640625 298.066406 222.445312 298.371094 222.421875 298.699219 C 222.359375 299.023438 222.398438 299.382812 222.324219 299.6875 C 222.289062 299.84375 222.195312 299.957031 222.121094 300.066406 C 222.082031 300.117188 222.066406 300.207031 222.035156 300.273438 L 222 300.402344 C 221.980469 300.449219 222.011719 300.5625 222.15625 300.957031 C 222.386719 301.300781 222.5 301.359375 222.570312 301.347656 C 222.640625 301.339844 222.714844 301.332031 222.789062 301.316406 C 222.929688 301.285156 223.042969 301.214844 223.15625 301.136719 C 223.375 300.976562 223.535156 300.765625 223.714844 300.585938 C 224.082031 300.21875 224.421875 299.824219 224.601562 299.378906 C 224.8125 298.941406 224.789062 298.460938 224.769531 298.011719 C 224.757812 297.785156 224.753906 297.566406 224.691406 297.339844 C 224.664062 297.230469 224.613281 297.113281 224.5625 297.003906 Z M 225.144531 289.476562 L 225.296875 289.3125 C 225.394531 289.195312 225.476562 289.074219 225.523438 288.9375 C 225.636719 288.675781 225.695312 288.402344 225.800781 288.136719 C 226 287.601562 226.226562 287.042969 226.257812 286.464844 C 226.332031 285.890625 226.160156 285.324219 225.996094 284.785156 C 225.902344 284.515625 225.828125 284.25 225.683594 283.996094 C 225.613281 283.871094 225.527344 283.75 225.433594 283.632812 L 225.277344 283.460938 C 225.242188 283.398438 225.109375 283.359375 224.648438 283.453125 C 224.226562 283.664062 224.136719 283.746094 224.132812 283.808594 L 224.085938 284.003906 C 224.0625 284.132812 224.035156 284.261719 224.023438 284.382812 C 223.996094 284.625 224.011719 284.859375 224 285.097656 C 223.992188 285.566406 223.902344 286.023438 223.972656 286.464844 C 224.015625 286.914062 224.144531 287.371094 224.164062 287.839844 C 224.183594 288.078125 224.128906 288.300781 224.09375 288.527344 C 224.082031 288.644531 224.082031 288.761719 224.085938 288.886719 L 224.109375 289.082031 C 224.117188 289.148438 224.203125 289.242188 224.5625 289.457031 C 224.964844 289.554688 225.09375 289.527344 225.144531 289.476562 Z M 146.324219 302.246094 C 146.109375 302.117188 145.886719 302.007812 145.65625 301.902344 L 145.300781 301.761719 C 145.183594 301.710938 145.019531 301.726562 144.671875 301.988281 C 144.527344 302.398438 144.566406 302.554688 144.652344 302.65625 L 144.914062 302.953125 C 145.09375 303.136719 145.28125 303.3125 145.480469 303.46875 C 145.882812 303.785156 146.308594 304.0625 146.707031 304.386719 C 147.496094 305.035156 148.296875 305.699219 149.179688 306.238281 C 150.046875 306.8125 151.042969 307.171875 152.050781 307.503906 C 152.550781 307.667969 153.074219 307.820312 153.609375 307.902344 C 153.882812 307.9375 154.160156 307.953125 154.433594 307.960938 L 154.863281 307.925781 C 155.003906 307.925781 155.15625 307.84375 155.324219 307.394531 C 155.242188 306.90625 155.152344 306.78125 155.039062 306.742188 L 154.726562 306.59375 C 154.511719 306.476562 154.304688 306.363281 154.09375 306.269531 C 153.675781 306.046875 153.246094 305.875 152.824219 305.640625 C 151.976562 305.203125 151.171875 304.660156 150.292969 304.246094 C 149.421875 303.8125 148.496094 303.441406 147.605469 302.996094 C 147.160156 302.773438 146.75 302.496094 146.324219 302.246094 Z M 151.917969 290.0625 C 151.871094 289.597656 151.710938 289.105469 151.652344 288.601562 C 151.617188 288.347656 151.644531 288.097656 151.644531 287.84375 C 151.648438 287.71875 151.625 287.589844 151.601562 287.457031 L 151.539062 287.253906 C 151.523438 287.1875 151.421875 287.109375 151.03125 286.96875 C 150.613281 286.957031 150.492188 287.011719 150.449219 287.074219 L 150.328125 287.261719 C 150.261719 287.386719 150.207031 287.519531 150.171875 287.652344 C 150.101562 287.917969 150.078125 288.191406 150 288.460938 C 149.847656 289 149.65625 289.558594 149.636719 290.144531 C 149.582031 290.734375 149.777344 291.335938 150.027344 291.933594 C 150.152344 292.226562 150.3125 292.542969 150.546875 292.8125 C 150.683594 292.949219 150.835938 293.066406 150.984375 293.167969 L 151.257812 293.289062 C 151.332031 293.335938 151.484375 293.3125 151.804688 292.976562 C 152.023438 292.550781 152.078125 292.441406 152.058594 292.398438 L 152.042969 292.253906 C 152.039062 292.140625 152.042969 292.042969 152.023438 291.964844 C 152.023438 291.765625 151.972656 291.597656 151.96875 291.386719 C 151.941406 290.972656 152.007812 290.523438 151.917969 290.0625 Z M 151.546875 273.925781 C 151.148438 273.792969 151.019531 273.808594 150.960938 273.859375 L 150.792969 274.007812 C 150.691406 274.113281 150.597656 274.222656 150.53125 274.34375 C 150.394531 274.585938 150.300781 274.84375 150.15625 275.085938 C 149.875 275.574219 149.558594 276.085938 149.421875 276.671875 C 149.257812 277.253906 149.320312 277.894531 149.492188 278.53125 C 149.519531 278.6875 149.585938 278.847656 149.640625 279.003906 C 149.691406 279.160156 149.761719 279.3125 149.871094 279.457031 C 149.972656 279.597656 150.066406 279.734375 150.210938 279.847656 L 150.421875 280.003906 C 150.480469 280.0625 150.621094 280.070312 151.03125 279.847656 C 151.367188 279.515625 151.441406 279.414062 151.433594 279.363281 L 151.441406 279.1875 C 151.4375 279.085938 151.472656 278.960938 151.46875 278.867188 C 151.476562 278.671875 151.472656 278.480469 151.492188 278.285156 C 151.515625 277.890625 151.679688 277.488281 151.675781 277.050781 C 151.707031 276.613281 151.664062 276.117188 151.722656 275.628906 C 151.75 275.382812 151.839844 275.160156 151.902344 274.921875 C 151.9375 274.804688 151.953125 274.675781 151.957031 274.546875 L 151.957031 274.339844 C 151.957031 274.273438 151.882812 274.175781 151.546875 273.925781 Z M 201.257812 302.085938 C 198.289062 301.933594 195.328125 301.621094 192.390625 301.164062 C 192.574219 301.257812 192.761719 301.355469 192.949219 301.449219 C 193.671875 301.835938 194.398438 302.207031 195.160156 302.414062 C 195.925781 302.640625 196.648438 302.683594 197.472656 302.605469 C 198.289062 302.542969 199.125 302.410156 199.957031 302.296875 C 200.390625 302.230469 200.824219 302.15625 201.257812 302.085938 Z M 187.167969 283.121094 C 184.335938 283.566406 181.492188 283.941406 178.640625 284.113281 L 182.105469 284.734375 C 185.554688 285.296875 189.007812 285.816406 192.441406 286.449219 C 195.882812 287.054688 199.285156 287.855469 202.695312 288.605469 C 204.402344 288.984375 206.105469 289.351562 207.800781 289.773438 C 208.652344 289.972656 209.5 290.199219 210.34375 290.425781 L 210.8125 290.554688 C 211.421875 290.582031 212.027344 290.605469 212.632812 290.636719 C 212.976562 290.648438 213.246094 290.941406 213.234375 291.285156 C 213.222656 291.621094 212.941406 291.882812 212.609375 291.886719 C 212.488281 291.886719 212.367188 291.886719 212.246094 291.886719 C 211.941406 291.984375 211.65625 291.988281 211.378906 291.949219 L 210.800781 291.878906 C 204.539062 291.871094 198.28125 291.746094 192.019531 291.550781 C 188.582031 291.421875 185.148438 291.308594 181.679688 290.964844 C 179.988281 290.789062 178.289062 290.617188 176.648438 290.574219 C 175.839844 290.5625 175.011719 290.578125 174.367188 290.722656 C 174.050781 290.789062 173.792969 290.898438 173.691406 290.988281 C 173.589844 291.074219 173.539062 291.160156 173.484375 291.417969 C 173.433594 291.660156 173.4375 292.019531 173.46875 292.386719 L 173.476562 292.484375 C 173.476562 292.484375 173.476562 292.488281 173.492188 292.511719 C 173.53125 292.574219 173.601562 292.671875 173.714844 292.78125 C 174.148438 293.214844 174.859375 293.648438 175.558594 294.023438 C 176.984375 294.769531 178.542969 295.398438 180.121094 295.96875 C 183.285156 297.097656 186.570312 297.972656 189.882812 298.675781 C 196.507812 300.070312 203.324219 300.902344 210.070312 300.4375 L 210.082031 300.4375 C 210.511719 300.410156 210.882812 300.730469 210.914062 301.160156 C 210.941406 301.554688 210.664062 301.902344 210.289062 301.976562 C 206.925781 302.648438 203.566406 303.261719 200.144531 303.695312 C 199.289062 303.800781 198.429688 303.878906 197.542969 303.910156 C 196.667969 303.960938 195.660156 303.859375 194.800781 303.546875 C 193.304688 303.003906 191.902344 302.207031 190.992188 300.933594 C 190.488281 300.847656 189.980469 300.765625 189.480469 300.671875 C 186.074219 300.015625 182.703125 299.1875 179.386719 298.078125 C 177.726562 297.515625 176.082031 296.894531 174.476562 296.046875 C 173.722656 295.632812 172.972656 295.210938 172.230469 294.527344 L 172.1875 294.542969 C 171.988281 294.605469 171.792969 294.667969 171.597656 294.707031 C 171.207031 294.796875 170.8125 294.832031 170.417969 294.886719 C 169.632812 294.980469 168.847656 295.121094 168.058594 295.0625 C 167.269531 295.039062 166.480469 294.882812 165.691406 294.792969 C 165.296875 294.742188 164.902344 294.753906 164.507812 294.730469 C 164.3125 294.714844 164.113281 294.683594 163.914062 294.636719 L 163.617188 294.550781 C 163.519531 294.527344 163.421875 294.417969 163.3125 294.007812 C 163.40625 293.59375 163.5 293.480469 163.597656 293.449219 L 163.890625 293.355469 C 164.085938 293.300781 164.285156 293.261719 164.480469 293.242188 C 164.875 293.203125 165.269531 293.199219 165.660156 293.136719 C 166.445312 293.015625 167.230469 292.832031 168.015625 292.78125 C 168.804688 292.691406 169.59375 292.800781 170.382812 292.871094 C 170.664062 292.898438 170.945312 292.921875 171.230469 292.960938 C 171.214844 292.898438 171.199219 292.835938 171.191406 292.773438 L 171.171875 292.582031 C 171.136719 292.097656 171.105469 291.59375 171.214844 290.992188 C 171.308594 290.414062 171.640625 289.664062 172.21875 289.214844 C 172.777344 288.753906 173.363281 288.585938 173.875 288.464844 C 174.910156 288.261719 175.816406 288.285156 176.714844 288.3125 C 178.503906 288.386719 180.214844 288.59375 181.929688 288.800781 C 185.277344 289.175781 188.699219 289.425781 192.109375 289.640625 C 194.421875 289.785156 196.742188 289.910156 199.0625 290.023438 C 196.699219 289.617188 194.34375 289.199219 192 288.6875 C 188.585938 287.972656 185.1875 287.144531 181.785156 286.359375 L 176.664062 285.261719 C 175.808594 285.070312 174.957031 284.882812 174.113281 284.660156 L 172.859375 284.320312 C 171.488281 284.339844 170.117188 284.339844 168.75 284.339844 L 164.140625 284.386719 C 163.375 284.382812 162.605469 284.371094 161.839844 284.332031 L 160.6875 284.253906 C 160.304688 284.226562 159.917969 284.125 159.535156 283.710938 C 159.914062 283.292969 160.296875 283.183594 160.679688 283.148438 L 161.824219 283.046875 C 162.585938 282.980469 163.347656 282.949219 164.113281 282.90625 C 165.636719 282.839844 167.164062 282.785156 168.6875 282.683594 C 171.738281 282.460938 174.773438 282.144531 177.808594 281.882812 C 180.84375 281.601562 183.882812 281.441406 186.902344 281.125 C 188.332031 280.992188 189.746094 280.785156 191.167969 280.613281 C 190.214844 280.378906 189.261719 280.117188 188.316406 279.820312 C 187.914062 279.683594 187.503906 279.574219 187.105469 279.421875 L 185.914062 278.933594 C 185.105469 278.652344 184.359375 278.164062 183.597656 277.761719 C 183.234375 277.511719 182.871094 277.253906 182.519531 276.988281 C 182.167969 276.722656 181.851562 276.378906 181.53125 276.074219 C 181.378906 275.910156 181.246094 275.714844 181.105469 275.535156 C 180.960938 275.359375 180.832031 275.167969 180.726562 274.953125 C 180.480469 274.578125 180.34375 273.992188 180.75 273.5 C 181.03125 273.671875 181.191406 273.78125 181.359375 273.902344 C 181.496094 274.03125 181.625 274.15625 181.730469 274.300781 C 181.828125 274.445312 181.957031 274.578125 182.097656 274.699219 C 182.238281 274.824219 182.355469 274.957031 182.503906 275.074219 C 182.824219 275.285156 183.09375 275.53125 183.429688 275.71875 C 183.773438 275.902344 184.101562 276.101562 184.433594 276.289062 C 185.160156 276.59375 185.847656 276.945312 186.609375 277.183594 L 187.730469 277.578125 C 188.109375 277.695312 188.507812 277.78125 188.894531 277.886719 C 191.988281 278.710938 195.21875 279.097656 198.449219 279.476562 L 200.878906 279.761719 L 203.324219 279.976562 L 205.773438 280.191406 L 208.230469 280.320312 C 209.871094 280.378906 211.515625 280.445312 213.160156 280.417969 C 213.980469 280.421875 214.804688 280.425781 215.625 280.460938 L 216.863281 280.523438 C 217.277344 280.546875 217.691406 280.644531 218.117188 281.050781 C 217.722656 281.472656 217.3125 281.589844 216.898438 281.628906 L 215.660156 281.746094 C 214.832031 281.816406 214.003906 281.855469 213.179688 281.894531 C 211.523438 281.992188 209.863281 281.941406 208.203125 281.976562 L 205.710938 282.03125 L 203.214844 281.992188 L 200.714844 281.9375 L 198.214844 281.746094 C 197.070312 281.660156 195.925781 281.523438 194.785156 281.34375 L 193.980469 281.632812 C 193.234375 281.84375 192.484375 282.058594 191.730469 282.246094 C 190.21875 282.601562 188.691406 282.886719 187.167969 283.121094 Z M 170.230469 254.75 C 170.230469 255.53125 171.152344 256.164062 172.289062 256.164062 C 173.429688 256.164062 174.351562 255.53125 174.351562 254.75 C 174.351562 253.964844 173.429688 253.332031 172.289062 253.332031 C 171.152344 253.332031 170.230469 253.964844 170.230469 254.75 Z M 200.492188 255.699219 C 200.675781 254.308594 199.46875 253.648438 199.054688 253.464844 C 196.894531 253.347656 176.824219 252.257812 172.273438 252.015625 C 170.96875 251.945312 169.984375 252.203125 169.429688 252.75 C 168.828125 253.347656 168.839844 254.15625 168.839844 254.167969 C 168.871094 254.796875 168.382812 255.332031 167.75 255.363281 C 167.085938 255.378906 166.578125 254.90625 166.550781 254.273438 C 166.539062 254.089844 166.503906 252.433594 167.8125 251.128906 C 168.855469 250.09375 170.398438 249.628906 172.394531 249.730469 C 177.203125 249.988281 199.367188 251.191406 199.367188 251.191406 C 199.476562 251.195312 199.585938 251.21875 199.691406 251.253906 C 200.914062 251.6875 203.128906 253.238281 202.761719 256 C 202.683594 256.578125 202.191406 256.996094 201.628906 256.996094 C 201.578125 256.996094 201.527344 256.992188 201.476562 256.984375 C 200.847656 256.898438 200.40625 256.328125 200.492188 255.699219"/><path fill="#F1E510" d="M 170.742188 240.71875 C 170.355469 240.507812 169.953125 240.449219 169.570312 240.390625 C 169.28125 240.367188 168.984375 240.34375 168.703125 240.304688 C 168.136719 240.226562 167.59375 240.117188 167.15625 239.914062 C 166.71875 239.710938 166.417969 239.441406 166.234375 239.042969 C 166.050781 238.648438 165.992188 238.121094 166.007812 237.578125 C 166.007812 237.03125 166.101562 236.46875 166.199219 235.882812 C 166.402344 234.644531 166.617188 233.253906 165.988281 231.84375 C 165.671875 231.15625 165.140625 230.605469 164.613281 230.199219 C 164.085938 229.789062 163.546875 229.464844 163.023438 229.148438 L 162.246094 228.679688 C 162.015625 228.515625 161.78125 228.386719 161.582031 228.195312 C 161.164062 227.851562 160.808594 227.421875 160.523438 226.945312 C 159.960938 225.972656 159.652344 224.902344 159.132812 223.707031 C 158.179688 226.238281 160.148438 229.085938 162.3125 230.257812 C 163.316406 230.949219 164.328125 231.574219 164.667969 232.4375 C 165.035156 233.304688 164.917969 234.476562 164.71875 235.613281 C 164.613281 236.226562 164.503906 236.878906 164.496094 237.550781 C 164.484375 238.21875 164.535156 238.945312 164.855469 239.671875 C 165.171875 240.402344 165.84375 240.996094 166.515625 241.289062 C 167.1875 241.601562 167.859375 241.722656 168.503906 241.8125 C 168.824219 241.859375 169.140625 241.886719 169.457031 241.910156 C 169.679688 241.953125 169.886719 241.972656 170.039062 242.066406 C 170.355469 242.214844 170.582031 242.527344 170.722656 243.003906 C 170.871094 243.472656 170.921875 244.03125 170.941406 244.601562 C 170.960938 245.1875 170.816406 245.730469 171.1875 246.453125 C 171.886719 246 171.960938 245.335938 172.089844 244.703125 C 172.214844 244.058594 172.257812 243.382812 172.121094 242.660156 C 171.992188 241.960938 171.539062 241.117188 170.742188 240.71875 Z M 217.902344 225.722656 C 217.246094 225.742188 216.574219 225.847656 215.898438 226.140625 C 215.242188 226.417969 214.519531 227.039062 214.300781 227.90625 C 214.175781 228.324219 214.210938 228.734375 214.238281 229.117188 C 214.273438 229.410156 214.316406 229.699219 214.339844 229.984375 C 214.390625 230.550781 214.394531 231.109375 214.296875 231.578125 C 214.191406 232.050781 213.992188 232.398438 213.648438 232.664062 C 213.300781 232.929688 212.800781 233.101562 212.261719 233.207031 C 211.726562 233.320312 211.160156 233.351562 210.5625 233.386719 C 209.3125 233.460938 207.90625 233.554688 206.664062 234.46875 C 206.058594 234.929688 205.636719 235.566406 205.355469 236.167969 C 205.066406 236.777344 204.871094 237.367188 204.675781 237.949219 L 204.386719 238.808594 C 204.273438 239.070312 204.203125 239.324219 204.058594 239.5625 C 203.8125 240.046875 203.472656 240.484375 203.066406 240.867188 C 202.242188 241.625 201.261719 242.160156 200.210938 242.929688 C 202.886719 243.308594 205.238281 240.765625 205.917969 238.402344 C 206.371094 237.273438 206.761719 236.148438 207.53125 235.628906 C 208.296875 235.085938 209.46875 234.941406 210.621094 234.890625 C 211.246094 234.855469 211.90625 234.824219 212.566406 234.683594 C 213.222656 234.550781 213.917969 234.34375 214.558594 233.871094 C 215.203125 233.40625 215.636719 232.621094 215.777344 231.902344 C 215.9375 231.175781 215.910156 230.496094 215.859375 229.851562 C 215.832031 229.527344 215.792969 229.210938 215.746094 228.898438 C 215.742188 228.671875 215.714844 228.464844 215.769531 228.296875 C 215.851562 227.957031 216.101562 227.667969 216.539062 227.425781 C 216.960938 227.179688 217.5 227.011719 218.054688 226.867188 C 218.617188 226.71875 219.179688 226.738281 219.804688 226.222656 C 219.210938 225.640625 218.546875 225.710938 217.902344 225.722656 Z M 189.488281 228.160156 C 189.816406 228.820312 189.953125 229.703125 189.726562 230.46875 C 189.511719 231.230469 189.085938 231.820312 188.648438 232.324219 C 188.210938 232.839844 187.710938 233.269531 187.234375 233.675781 C 186.355469 234.421875 185.515625 235.25 185.246094 236.144531 C 184.953125 237.03125 185.332031 238.160156 185.664062 239.332031 C 186.578125 241.613281 186.269531 245.0625 183.917969 246.398438 C 184.28125 245.144531 184.726562 244.128906 184.917969 243.019531 C 185.003906 242.472656 185.003906 241.917969 184.902344 241.382812 C 184.875 241.109375 184.773438 240.863281 184.703125 240.585938 L 184.40625 239.726562 C 184.203125 239.152344 184 238.5625 183.851562 237.90625 C 183.707031 237.257812 183.652344 236.496094 183.847656 235.761719 C 184.269531 234.277344 185.324219 233.347656 186.269531 232.523438 C 186.722656 232.132812 187.148438 231.761719 187.503906 231.339844 C 187.863281 230.929688 188.152344 230.488281 188.265625 230.066406 C 188.378906 229.644531 188.320312 229.246094 188.113281 228.8125 C 187.90625 228.378906 187.558594 227.941406 187.175781 227.523438 C 186.980469 227.3125 186.769531 227.109375 186.5625 226.902344 C 186.304688 226.613281 186.03125 226.3125 185.871094 225.902344 C 185.511719 225.085938 185.703125 224.152344 186.054688 223.53125 C 186.410156 222.886719 186.875 222.394531 187.382812 221.976562 C 187.886719 221.574219 188.367188 221.109375 189.195312 221.207031 C 189.015625 222 188.558594 222.328125 188.203125 222.789062 C 187.851562 223.242188 187.53125 223.703125 187.34375 224.15625 C 187.152344 224.613281 187.128906 224.996094 187.273438 225.3125 C 187.332031 225.484375 187.480469 225.628906 187.621094 225.804688 C 187.847656 226.027344 188.074219 226.25 188.292969 226.488281 C 188.730469 226.972656 189.167969 227.492188 189.488281 228.160156"/><path fill="#E3386A" d="M 149.890625 177.523438 C 149.714844 177.539062 149.539062 177.5625 149.367188 177.589844 C 149.019531 177.648438 148.683594 177.71875 148.355469 177.828125 C 148.023438 177.925781 147.699219 178.039062 147.371094 178.148438 C 147.210938 178.210938 147.039062 178.246094 146.894531 178.351562 C 146.820312 178.40625 146.753906 178.480469 146.691406 178.566406 C 146.664062 178.613281 146.625 178.640625 146.605469 178.714844 C 146.585938 178.796875 146.589844 178.941406 146.628906 179.199219 C 146.753906 179.429688 146.835938 179.546875 146.902344 179.601562 C 146.964844 179.652344 147.007812 179.648438 147.0625 179.671875 C 147.160156 179.699219 147.257812 179.722656 147.351562 179.71875 C 147.53125 179.71875 147.6875 179.644531 147.851562 179.597656 C 148.183594 179.488281 148.511719 179.386719 148.835938 179.261719 C 149.160156 179.152344 149.476562 179.007812 149.785156 178.84375 C 149.941406 178.765625 150.09375 178.679688 150.242188 178.585938 C 150.398438 178.503906 150.554688 178.433594 150.558594 177.894531 C 150.230469 177.460938 150.0625 177.496094 149.890625 177.523438 Z M 140.105469 181.671875 C 139.785156 181.679688 139.472656 181.726562 139.152344 181.761719 L 138.214844 181.949219 C 137.59375 182.078125 136.96875 182.195312 136.34375 182.335938 L 134.496094 182.8125 C 132.050781 183.515625 129.628906 184.335938 127.316406 185.390625 C 124.992188 186.421875 122.714844 187.5625 120.511719 188.824219 C 119.410156 189.460938 118.316406 190.109375 117.277344 190.84375 C 116.761719 191.214844 116.25 191.59375 115.765625 192.011719 C 115.289062 192.429688 114.734375 192.765625 114.558594 193.582031 C 115.394531 193.648438 115.863281 193.253906 116.421875 192.964844 C 116.972656 192.667969 117.515625 192.359375 118.054688 192.046875 L 121.269531 190.144531 C 123.429688 188.90625 125.652344 187.777344 127.925781 186.765625 C 130.195312 185.746094 132.515625 184.847656 134.875 184.074219 L 136.65625 183.511719 C 137.25 183.339844 137.855469 183.195312 138.457031 183.035156 C 139.660156 182.695312 140.882812 182.546875 142.050781 181.816406 C 141.390625 181.65625 140.75 181.644531 140.105469 181.671875 Z M 170.601562 87.230469 C 170.394531 87.285156 170.234375 87.40625 170.046875 87.492188 C 169.691406 87.699219 169.34375 87.9375 169.058594 88.230469 C 168.472656 88.804688 168.007812 89.484375 167.648438 90.195312 C 166.910156 91.609375 166.464844 93.121094 166.183594 94.636719 C 165.898438 96.148438 165.800781 97.679688 165.800781 99.199219 C 165.8125 99.957031 165.847656 100.714844 165.902344 101.46875 C 165.945312 102.222656 166.007812 102.988281 166.59375 103.683594 C 167.03125 102.894531 167.011719 102.175781 167.015625 101.4375 C 167.027344 100.703125 167.0625 99.96875 167.121094 99.242188 C 167.214844 97.78125 167.402344 96.335938 167.671875 94.921875 C 167.960938 93.511719 168.363281 92.132812 169 90.902344 C 169.316406 90.28125 169.707031 89.726562 170.121094 89.199219 C 170.324219 88.925781 170.539062 88.667969 170.765625 88.410156 C 170.988281 88.125 171.28125 88.007812 171.339844 87.339844 C 171.054688 87.195312 170.8125 87.1875 170.601562 87.230469 Z M 200.015625 75.988281 C 197.660156 76.015625 195.316406 76.28125 193.027344 76.792969 C 190.742188 77.316406 188.511719 78.015625 186.328125 78.839844 C 185.238281 79.257812 184.160156 79.703125 183.125 80.238281 C 182.605469 80.503906 182.097656 80.796875 181.605469 81.113281 C 181.125 81.441406 180.574219 81.671875 180.339844 82.433594 C 181.105469 82.636719 181.582031 82.335938 182.125 82.148438 C 182.664062 81.957031 183.191406 81.742188 183.722656 81.542969 C 184.773438 81.113281 185.816406 80.667969 186.875 80.265625 C 188.992188 79.453125 191.15625 78.769531 193.359375 78.257812 C 195.566406 77.78125 197.792969 77.425781 200.039062 77.308594 C 201.15625 77.316406 202.289062 77.25 203.398438 77.402344 C 204.535156 77.460938 205.582031 77.765625 206.847656 77.53125 C 205.867188 76.785156 204.707031 76.414062 203.539062 76.300781 C 202.375 76.070312 201.195312 76.066406 200.015625 75.988281 Z M 293.445312 276.902344 C 293.292969 276.292969 292.667969 275.921875 292.054688 276.078125 L 263.984375 283.253906 C 267.28125 264.691406 270.976562 241.867188 270.976562 232.738281 C 270.976562 217.046875 276.953125 206.382812 277.011719 206.277344 C 277.324219 205.726562 277.132812 205.027344 276.585938 204.71875 C 276.035156 204.402344 275.335938 204.59375 275.019531 205.144531 C 274.761719 205.59375 268.6875 216.40625 268.6875 232.738281 C 268.6875 248.660156 256.800781 309.308594 256.679688 309.917969 C 256.558594 310.539062 256.964844 311.140625 257.585938 311.261719 C 257.660156 311.277344 257.734375 311.285156 257.804688 311.285156 C 258.34375 311.285156 258.820312 310.90625 258.929688 310.359375 C 259.128906 309.335938 261.183594 298.859375 263.539062 285.726562 L 292.621094 278.296875 C 293.234375 278.140625 293.605469 277.515625 293.445312 276.902344 Z M 125.652344 359.347656 C 125.058594 359.128906 124.398438 359.4375 124.183594 360.03125 C 122.226562 365.40625 114.960938 373.207031 114.886719 373.285156 C 114.457031 373.746094 114.480469 374.46875 114.941406 374.898438 C 115.164062 375.109375 115.445312 375.210938 115.722656 375.210938 C 116.03125 375.210938 116.335938 375.089844 116.5625 374.847656 C 116.875 374.515625 124.21875 366.628906 126.335938 360.8125 C 126.550781 360.21875 126.246094 359.5625 125.652344 359.347656 Z M 116.34375 304.453125 C 116.128906 303.726562 113.550781 294.839844 110.933594 283.78125 L 86.285156 278.652344 C 85.664062 278.523438 85.265625 277.914062 85.398438 277.296875 C 85.527344 276.675781 86.132812 276.28125 86.75 276.410156 L 110.359375 281.324219 C 107.890625 270.582031 105.542969 258.28125 105.304688 249.503906 C 104.800781 231.183594 96.238281 214.378906 96.152344 214.214844 C 95.859375 213.652344 96.082031 212.960938 96.644531 212.671875 C 97.207031 212.386719 97.898438 212.605469 98.1875 213.167969 C 98.550781 213.867188 107.074219 230.605469 107.59375 249.441406 C 108.097656 267.871094 118.4375 303.453125 118.542969 303.8125 C 118.722656 304.417969 118.371094 305.054688 117.765625 305.230469 C 117.65625 305.261719 117.546875 305.277344 117.441406 305.277344 C 116.945312 305.277344 116.488281 304.953125 116.34375 304.453125"/></svg>