<svg xmlns="http://www.w3.org/2000/svg" xmlns:xlink="http://www.w3.org/1999/xlink" width="375" viewBox="0 0 375 375" height="375" version="1.0"><defs><clipPath id="a"><path d="M 375 187.5 C 375 190.570312 374.925781 193.636719 374.773438 196.699219 C 374.625 199.765625 374.398438 202.824219 374.097656 205.878906 C 373.796875 208.933594 373.421875 211.976562 372.96875 215.011719 C 372.519531 218.046875 371.996094 221.070312 371.398438 224.078125 C 370.796875 227.089844 370.125 230.082031 369.378906 233.058594 C 368.636719 236.035156 367.816406 238.992188 366.925781 241.929688 C 366.035156 244.863281 365.074219 247.777344 364.039062 250.667969 C 363.003906 253.554688 361.902344 256.417969 360.726562 259.253906 C 359.554688 262.089844 358.308594 264.890625 356.996094 267.667969 C 355.6875 270.441406 354.308594 273.179688 352.859375 275.886719 C 351.414062 278.59375 349.902344 281.261719 348.324219 283.894531 C 346.746094 286.527344 345.105469 289.117188 343.402344 291.667969 C 341.695312 294.222656 339.929688 296.730469 338.101562 299.195312 C 336.273438 301.660156 334.386719 304.078125 332.4375 306.449219 C 330.492188 308.820312 328.488281 311.144531 326.429688 313.417969 C 324.367188 315.691406 322.253906 317.914062 320.082031 320.082031 C 317.914062 322.253906 315.691406 324.367188 313.417969 326.429688 C 311.144531 328.488281 308.820312 330.492188 306.449219 332.4375 C 304.078125 334.386719 301.660156 336.273438 299.195312 338.101562 C 296.730469 339.929688 294.222656 341.695312 291.667969 343.402344 C 289.117188 345.105469 286.527344 346.746094 283.894531 348.324219 C 281.261719 349.902344 278.59375 351.414062 275.886719 352.859375 C 273.179688 354.308594 270.441406 355.6875 267.667969 356.996094 C 264.890625 358.308594 262.089844 359.554688 259.253906 360.726562 C 256.417969 361.902344 253.554688 363.003906 250.667969 364.039062 C 247.777344 365.074219 244.863281 366.035156 241.929688 366.925781 C 238.992188 367.816406 236.035156 368.636719 233.058594 369.378906 C 230.082031 370.125 227.089844 370.796875 224.078125 371.398438 C 221.070312 371.996094 218.046875 372.519531 215.011719 372.96875 C 211.976562 373.421875 208.933594 373.796875 205.878906 374.097656 C 202.824219 374.398438 199.765625 374.625 196.699219 374.773438 C 193.636719 374.925781 190.570312 375 187.5 375 C 184.429688 375 181.363281 374.925781 178.300781 374.773438 C 175.234375 374.625 172.175781 374.398438 169.121094 374.097656 C 166.066406 373.796875 163.023438 373.421875 159.988281 372.96875 C 156.953125 372.519531 153.929688 371.996094 150.921875 371.398438 C 147.910156 370.796875 144.917969 370.125 141.941406 369.378906 C 138.964844 368.636719 136.007812 367.816406 133.070312 366.925781 C 130.136719 366.035156 127.222656 365.074219 124.332031 364.039062 C 121.445312 363.003906 118.582031 361.902344 115.746094 360.726562 C 112.910156 359.554688 110.105469 358.308594 107.332031 356.996094 C 104.558594 355.6875 101.820312 354.308594 99.113281 352.859375 C 96.40625 351.414062 93.738281 349.902344 91.105469 348.324219 C 88.472656 346.746094 85.882812 345.105469 83.332031 343.402344 C 80.777344 341.695312 78.269531 339.929688 75.804688 338.101562 C 73.339844 336.273438 70.921875 334.386719 68.550781 332.4375 C 66.179688 330.492188 63.855469 328.488281 61.582031 326.429688 C 59.308594 324.367188 57.085938 322.253906 54.917969 320.082031 C 52.746094 317.914062 50.632812 315.691406 48.570312 313.417969 C 46.511719 311.144531 44.507812 308.820312 42.558594 306.449219 C 40.613281 304.078125 38.726562 301.660156 36.898438 299.195312 C 35.070312 296.730469 33.304688 294.222656 31.597656 291.667969 C 29.894531 289.117188 28.253906 286.527344 26.675781 283.894531 C 25.097656 281.261719 23.585938 278.59375 22.140625 275.886719 C 20.691406 273.179688 19.3125 270.441406 18.003906 267.667969 C 16.691406 264.890625 15.445312 262.089844 14.273438 259.253906 C 13.097656 256.417969 11.996094 253.554688 10.960938 250.667969 C 9.925781 247.777344 8.964844 244.863281 8.074219 241.929688 C 7.183594 238.992188 6.363281 236.035156 5.621094 233.058594 C 4.875 230.082031 4.203125 227.089844 3.601562 224.078125 C 3.003906 221.070312 2.480469 218.046875 2.03125 215.011719 C 1.578125 211.976562 1.203125 208.933594 0.902344 205.878906 C 0.601562 202.824219 0.375 199.765625 0.226562 196.699219 C 0.0742188 193.636719 0 190.570312 0 187.5 C 0 184.429688 0.0742188 181.363281 0.226562 178.300781 C 0.375 175.234375 0.601562 172.175781 0.902344 169.121094 C 1.203125 166.066406 1.578125 163.023438 2.03125 159.988281 C 2.480469 156.953125 3.003906 153.929688 3.601562 150.921875 C 4.203125 147.910156 4.875 144.917969 5.621094 141.941406 C 6.363281 138.964844 7.183594 136.007812 8.074219 133.070312 C 8.964844 130.136719 9.925781 127.222656 10.960938 124.332031 C 11.996094 121.445312 13.097656 118.582031 14.273438 115.746094 C 15.445312 112.910156 16.691406 110.105469 18.003906 107.332031 C 19.3125 104.558594 20.691406 101.820312 22.140625 99.113281 C 23.585938 96.40625 25.097656 93.738281 26.675781 91.105469 C 28.253906 88.472656 29.894531 85.882812 31.597656 83.332031 C 33.304688 80.777344 35.070312 78.269531 36.898438 75.804688 C 38.726562 73.339844 40.613281 70.921875 42.558594 68.550781 C 44.507812 66.179688 46.511719 63.855469 48.570312 61.582031 C 50.632812 59.308594 52.746094 57.085938 54.917969 54.917969 C 57.085938 52.746094 59.308594 50.632812 61.582031 48.570312 C 63.855469 46.511719 66.179688 44.507812 68.550781 42.558594 C 70.921875 40.613281 73.339844 38.726562 75.804688 36.898438 C 78.269531 35.070312 80.777344 33.304688 83.332031 31.597656 C 85.882812 29.894531 88.472656 28.253906 91.105469 26.675781 C 93.738281 25.097656 96.40625 23.585938 99.113281 22.140625 C 101.820312 20.691406 104.558594 19.3125 107.332031 18.003906 C 110.105469 16.691406 112.910156 15.445312 115.746094 14.273438 C 118.582031 13.097656 121.445312 11.996094 124.332031 10.960938 C 127.222656 9.925781 130.136719 8.964844 133.070312 8.074219 C 136.007812 7.183594 138.964844 6.363281 141.941406 5.617188 C 144.917969 4.875 147.910156 4.203125 150.921875 3.601562 C 153.929688 3.003906 156.953125 2.480469 159.988281 2.03125 C 163.023438 1.578125 166.066406 1.203125 169.121094 0.902344 C 172.175781 0.601562 175.234375 0.375 178.300781 0.226562 C 181.363281 0.0742188 184.429688 0 187.5 0 C 190.570312 0 193.636719 0.0742188 196.699219 0.226562 C 199.765625 0.375 202.824219 0.601562 205.878906 0.902344 C 208.933594 1.203125 211.976562 1.578125 215.011719 2.03125 C 218.046875 2.480469 221.070312 3.003906 224.078125 3.601562 C 227.089844 4.203125 230.082031 4.875 233.058594 5.617188 C 236.035156 6.363281 238.992188 7.183594 241.929688 8.074219 C 244.863281 8.964844 247.777344 9.925781 250.667969 10.960938 C 253.554688 11.996094 256.417969 13.097656 259.253906 14.273438 C 262.089844 15.445312 264.890625 16.691406 267.667969 18.003906 C 270.441406 19.3125 273.179688 20.691406 275.886719 22.140625 C 278.59375 23.585938 281.261719 25.097656 283.894531 26.675781 C 286.527344 28.253906 289.117188 29.894531 291.667969 31.597656 C 294.222656 33.304688 296.730469 35.070312 299.195312 36.898438 C 301.660156 38.726562 304.078125 40.613281 306.449219 42.558594 C 308.820312 44.507812 311.144531 46.511719 313.417969 48.570312 C 315.691406 50.632812 317.914062 52.746094 320.082031 54.917969 C 322.253906 57.085938 324.367188 59.308594 326.429688 61.582031 C 328.488281 63.855469 330.492188 66.179688 332.4375 68.550781 C 334.386719 70.921875 336.273438 73.339844 338.101562 75.804688 C 339.929688 78.269531 341.695312 80.777344 343.402344 83.332031 C 345.105469 85.882812 346.746094 88.472656 348.324219 91.105469 C 349.902344 93.738281 351.414062 96.40625 352.859375 99.113281 C 354.308594 101.820312 355.6875 104.558594 356.996094 107.332031 C 358.308594 110.105469 359.554688 112.910156 360.726562 115.746094 C 361.902344 118.582031 363.003906 121.445312 364.039062 124.332031 C 365.074219 127.222656 366.035156 130.136719 366.925781 133.070312 C 367.816406 136.007812 368.636719 138.964844 369.378906 141.941406 C 370.125 144.917969 370.796875 147.910156 371.398438 150.921875 C 371.996094 153.929688 372.519531 156.953125 372.96875 159.988281 C 373.421875 163.023438 373.796875 166.066406 374.097656 169.121094 C 374.398438 172.175781 374.625 175.234375 374.773438 178.300781 C 374.925781 181.363281 375 184.429688 375 187.5 Z M 375 187.5"/></clipPath><clipPath id="c"><path d="M 75.183594 77 L 299.921875 77 L 299.921875 374.851562 L 75.183594 374.851562 Z M 75.183594 77"/></clipPath><linearGradient x1="0" gradientTransform="matrix(375 0 0 375 0 0)" y1="0" x2="1.005" gradientUnits="userSpaceOnUse" y2=".995" xlink:type="simple" xlink:actuate="onLoad" id="b" xlink:show="other"><stop stop-color="#092CAE" offset="0"/><stop stop-color="#0A2CAE" offset=".004"/><stop stop-color="#0B2CAE" offset=".008"/><stop stop-color="#0C2CAE" offset=".012"/><stop stop-color="#0D2BAE" offset=".016"/><stop stop-color="#0E2BAE" offset=".02"/><stop stop-color="#0F2BAE" offset=".023"/><stop stop-color="#102BAE" offset=".027"/><stop stop-color="#112BAE" offset=".031"/><stop stop-color="#112BAE" offset=".035"/><stop stop-color="#122AAE" offset=".039"/><stop stop-color="#132AAE" offset=".043"/><stop stop-color="#142AAE" offset=".047"/><stop stop-color="#152AAE" offset=".051"/><stop stop-color="#162AAE" offset=".055"/><stop stop-color="#172AAE" offset=".059"/><stop stop-color="#1829AF" offset=".063"/><stop stop-color="#1929AF" offset=".066"/><stop stop-color="#1A29AF" offset=".07"/><stop stop-color="#1B29AF" offset=".074"/><stop stop-color="#1C29AF" offset=".078"/><stop stop-color="#1D29AF" offset=".082"/><stop stop-color="#1E28AF" offset=".086"/><stop stop-color="#1F28AF" offset=".09"/><stop stop-color="#2028AF" offset=".094"/><stop stop-color="#2128AF" offset=".098"/><stop stop-color="#2228AF" offset=".102"/><stop stop-color="#2328AF" offset=".105"/><stop stop-color="#2427AF" offset=".109"/><stop stop-color="#2427AF" offset=".113"/><stop stop-color="#2527AF" offset=".117"/><stop stop-color="#2627AF" offset=".121"/><stop stop-color="#2727AF" offset=".125"/><stop stop-color="#2826AF" offset=".129"/><stop stop-color="#2926AF" offset=".133"/><stop stop-color="#2A26AF" offset=".137"/><stop stop-color="#2B26AF" offset=".141"/><stop stop-color="#2C26AF" offset=".145"/><stop stop-color="#2D26AF" offset=".148"/><stop stop-color="#2E25AF" offset=".152"/><stop stop-color="#2F25AF" offset=".156"/><stop stop-color="#3025B0" offset=".16"/><stop stop-color="#3125B0" offset=".164"/><stop stop-color="#3225B0" offset=".168"/><stop stop-color="#3325B0" offset=".172"/><stop stop-color="#3424B0" offset=".176"/><stop stop-color="#3524B0" offset=".18"/><stop stop-color="#3624B0" offset=".184"/><stop stop-color="#3724B0" offset=".188"/><stop stop-color="#3724B0" offset=".191"/><stop stop-color="#3824B0" offset=".195"/><stop stop-color="#3923B0" offset=".199"/><stop stop-color="#3A23B0" offset=".203"/><stop stop-color="#3B23B0" offset=".207"/><stop stop-color="#3C23B0" offset=".211"/><stop stop-color="#3D23B0" offset=".215"/><stop stop-color="#3E23B0" offset=".219"/><stop stop-color="#3F22B0" offset=".223"/><stop stop-color="#4022B0" offset=".227"/><stop stop-color="#4122B0" offset=".23"/><stop stop-color="#4222B0" offset=".234"/><stop stop-color="#4322B0" offset=".238"/><stop stop-color="#4422B0" offset=".242"/><stop stop-color="#4521B0" offset=".246"/><stop stop-color="#4621B0" offset=".25"/><stop stop-color="#4721B0" offset=".254"/><stop stop-color="#4821B1" offset=".258"/><stop stop-color="#4921B1" offset=".262"/><stop stop-color="#4A21B1" offset=".266"/><stop stop-color="#4A20B1" offset=".27"/><stop stop-color="#4B20B1" offset=".273"/><stop stop-color="#4C20B1" offset=".277"/><stop stop-color="#4D20B1" offset=".281"/><stop stop-color="#4E20B1" offset=".285"/><stop stop-color="#4F20B1" offset=".289"/><stop stop-color="#501FB1" offset=".293"/><stop stop-color="#511FB1" offset=".297"/><stop stop-color="#521FB1" offset=".301"/><stop stop-color="#531FB1" offset=".305"/><stop stop-color="#541FB1" offset=".309"/><stop stop-color="#551EB1" offset=".313"/><stop stop-color="#561EB1" offset=".316"/><stop stop-color="#571EB1" offset=".32"/><stop stop-color="#581EB1" offset=".324"/><stop stop-color="#591EB1" offset=".328"/><stop stop-color="#5A1EB1" offset=".332"/><stop stop-color="#5B1DB1" offset=".336"/><stop stop-color="#5C1DB1" offset=".34"/><stop stop-color="#5D1DB1" offset=".344"/><stop stop-color="#5D1DB1" offset=".348"/><stop stop-color="#5E1DB1" offset=".352"/><stop stop-color="#5F1DB1" offset=".355"/><stop stop-color="#601CB2" offset=".359"/><stop stop-color="#611CB2" offset=".363"/><stop stop-color="#621CB2" offset=".367"/><stop stop-color="#631CB2" offset=".371"/><stop stop-color="#641CB2" offset=".375"/><stop stop-color="#651CB2" offset=".379"/><stop stop-color="#661BB2" offset=".383"/><stop stop-color="#671BB2" offset=".387"/><stop stop-color="#681BB2" offset=".391"/><stop stop-color="#691BB2" offset=".395"/><stop stop-color="#6A1BB2" offset=".398"/><stop stop-color="#6B1BB2" offset=".402"/><stop stop-color="#6C1AB2" offset=".406"/><stop stop-color="#6D1AB2" offset=".41"/><stop stop-color="#6E1AB2" offset=".414"/><stop stop-color="#6F1AB2" offset=".418"/><stop stop-color="#701AB2" offset=".422"/><stop stop-color="#701AB2" offset=".426"/><stop stop-color="#7119B2" offset=".43"/><stop stop-color="#7219B2" offset=".434"/><stop stop-color="#7319B2" offset=".438"/><stop stop-color="#7419B2" offset=".441"/><stop stop-color="#7519B2" offset=".445"/><stop stop-color="#7619B2" offset=".449"/><stop stop-color="#7718B2" offset=".453"/><stop stop-color="#7818B3" offset=".457"/><stop stop-color="#7918B3" offset=".461"/><stop stop-color="#7A18B3" offset=".465"/><stop stop-color="#7B18B3" offset=".469"/><stop stop-color="#7C18B3" offset=".473"/><stop stop-color="#7D17B3" offset=".477"/><stop stop-color="#7E17B3" offset=".48"/><stop stop-color="#7F17B3" offset=".484"/><stop stop-color="#8017B3" offset=".488"/><stop stop-color="#8117B3" offset=".492"/><stop stop-color="#8216B3" offset=".496"/><stop stop-color="#8316B3" offset=".5"/><stop stop-color="#8316B3" offset=".504"/><stop stop-color="#8416B3" offset=".508"/><stop stop-color="#8516B3" offset=".512"/><stop stop-color="#8616B3" offset=".516"/><stop stop-color="#8715B3" offset=".52"/><stop stop-color="#8815B3" offset=".523"/><stop stop-color="#8915B3" offset=".527"/><stop stop-color="#8A15B3" offset=".531"/><stop stop-color="#8B15B3" offset=".535"/><stop stop-color="#8C15B3" offset=".539"/><stop stop-color="#8D14B3" offset=".543"/><stop stop-color="#8E14B3" offset=".547"/><stop stop-color="#8F14B3" offset=".551"/><stop stop-color="#9014B3" offset=".555"/><stop stop-color="#9114B4" offset=".559"/><stop stop-color="#9214B4" offset=".563"/><stop stop-color="#9313B4" offset=".566"/><stop stop-color="#9413B4" offset=".57"/><stop stop-color="#9513B4" offset=".574"/><stop stop-color="#9613B4" offset=".578"/><stop stop-color="#9613B4" offset=".582"/><stop stop-color="#9713B4" offset=".586"/><stop stop-color="#9812B4" offset=".59"/><stop stop-color="#9912B4" offset=".594"/><stop stop-color="#9A12B4" offset=".598"/><stop stop-color="#9B12B4" offset=".602"/><stop stop-color="#9C12B4" offset=".605"/><stop stop-color="#9D12B4" offset=".609"/><stop stop-color="#9E11B4" offset=".613"/><stop stop-color="#9F11B4" offset=".617"/><stop stop-color="#A011B4" offset=".621"/><stop stop-color="#A111B4" offset=".625"/><stop stop-color="#A211B4" offset=".629"/><stop stop-color="#A311B4" offset=".633"/><stop stop-color="#A410B4" offset=".637"/><stop stop-color="#A510B4" offset=".641"/><stop stop-color="#A610B4" offset=".645"/><stop stop-color="#A710B4" offset=".648"/><stop stop-color="#A810B4" offset=".652"/><stop stop-color="#A910B5" offset=".656"/><stop stop-color="#A90FB5" offset=".66"/><stop stop-color="#AA0FB5" offset=".664"/><stop stop-color="#AB0FB5" offset=".668"/><stop stop-color="#AC0FB5" offset=".672"/><stop stop-color="#AD0FB5" offset=".676"/><stop stop-color="#AE0EB5" offset=".68"/><stop stop-color="#AF0EB5" offset=".684"/><stop stop-color="#B00EB5" offset=".688"/><stop stop-color="#B10EB5" offset=".691"/><stop stop-color="#B20EB5" offset=".695"/><stop stop-color="#B30EB5" offset=".699"/><stop stop-color="#B40DB5" offset=".703"/><stop stop-color="#B50DB5" offset=".707"/><stop stop-color="#B60DB5" offset=".711"/><stop stop-color="#B70DB5" offset=".715"/><stop stop-color="#B80DB5" offset=".719"/><stop stop-color="#B90DB5" offset=".723"/><stop stop-color="#BA0CB5" offset=".727"/><stop stop-color="#BB0CB5" offset=".73"/><stop stop-color="#BC0CB5" offset=".734"/><stop stop-color="#BC0CB5" offset=".738"/><stop stop-color="#BD0CB5" offset=".742"/><stop stop-color="#BE0CB5" offset=".746"/><stop stop-color="#BF0BB5" offset=".75"/><stop stop-color="#C00BB6" offset=".754"/><stop stop-color="#C10BB6" offset=".758"/><stop stop-color="#C20BB6" offset=".762"/><stop stop-color="#C30BB6" offset=".766"/><stop stop-color="#C40BB6" offset=".77"/><stop stop-color="#C50AB6" offset=".773"/><stop stop-color="#C60AB6" offset=".777"/><stop stop-color="#C70AB6" offset=".781"/><stop stop-color="#C80AB6" offset=".785"/><stop stop-color="#C90AB6" offset=".789"/><stop stop-color="#CA0AB6" offset=".793"/><stop stop-color="#CB09B6" offset=".797"/><stop stop-color="#CC09B6" offset=".801"/><stop stop-color="#CD09B6" offset=".805"/><stop stop-color="#CE09B6" offset=".809"/><stop stop-color="#CE09B6" offset=".813"/><stop stop-color="#CF09B6" offset=".816"/><stop stop-color="#D008B6" offset=".82"/><stop stop-color="#D108B6" offset=".824"/><stop stop-color="#D208B6" offset=".828"/><stop stop-color="#D308B6" offset=".832"/><stop stop-color="#D408B6" offset=".836"/><stop stop-color="#D507B6" offset=".84"/><stop stop-color="#D607B6" offset=".844"/><stop stop-color="#D707B6" offset=".848"/><stop stop-color="#D807B6" offset=".852"/><stop stop-color="#D907B7" offset=".855"/><stop stop-color="#DA07B7" offset=".859"/><stop stop-color="#DB06B7" offset=".863"/><stop stop-color="#DC06B7" offset=".867"/><stop stop-color="#DD06B7" offset=".871"/><stop stop-color="#DE06B7" offset=".875"/><stop stop-color="#DF06B7" offset=".879"/><stop stop-color="#E006B7" offset=".883"/><stop stop-color="#E105B7" offset=".887"/><stop stop-color="#E105B7" offset=".891"/><stop stop-color="#E205B7" offset=".895"/><stop stop-color="#E305B7" offset=".898"/><stop stop-color="#E405B7" offset=".902"/><stop stop-color="#E505B7" offset=".906"/><stop stop-color="#E604B7" offset=".91"/><stop stop-color="#E704B7" offset=".914"/><stop stop-color="#E804B7" offset=".918"/><stop stop-color="#E904B7" offset=".922"/><stop stop-color="#EA04B7" offset=".926"/><stop stop-color="#EB04B7" offset=".93"/><stop stop-color="#EC03B7" offset=".934"/><stop stop-color="#ED03B7" offset=".938"/><stop stop-color="#EE03B7" offset=".941"/><stop stop-color="#EF03B7" offset=".945"/><stop stop-color="#F003B7" offset=".949"/><stop stop-color="#F103B8" offset=".953"/><stop stop-color="#F202B8" offset=".957"/><stop stop-color="#F302B8" offset=".961"/><stop stop-color="#F402B8" offset=".965"/><stop stop-color="#F402B8" offset=".969"/><stop stop-color="#F502B8" offset=".973"/><stop stop-color="#F602B8" offset=".977"/><stop stop-color="#F701B8" offset=".98"/><stop stop-color="#F801B8" offset=".984"/><stop stop-color="#F901B8" offset=".988"/><stop stop-color="#FA01B8" offset=".992"/><stop stop-color="#FB01B8" offset=".996"/><stop stop-color="#FC01B8" offset="1"/></linearGradient></defs><g clip-path="url(#a)"><path fill="url(#b)" d="M-37.5 -37.5H412.5V412.5H-37.5z"/></g><g clip-path="url(#c)"><path fill="#FFF" d="M 294.484375 273.277344 L 291.476562 274.050781 C 292.40625 285.632812 296.378906 344.460938 282.371094 359.0625 C 275.902344 365.804688 267.019531 366.453125 264.007812 366.464844 L 264.160156 374.851562 L 107.476562 374.851562 L 108.109375 361.664062 C 71.679688 350.949219 83.074219 282.558594 84.914062 272.726562 L 81.214844 271.53125 C 76.578125 270.023438 74.074219 265.015625 75.660156 260.40625 C 75.660156 260.40625 79.300781 229.320312 90.640625 207.355469 C 95.839844 197.28125 106.742188 189.679688 116.757812 184.355469 C 129.925781 177.355469 159.078125 169.015625 170.816406 165.804688 C 172.085938 156.34375 171.351562 146.0625 171.351562 146.0625 C 168.5625 143.203125 167.070312 138.207031 166.394531 132.34375 C 163.554688 133.859375 158.335938 129.023438 158.976562 121.246094 C 159.277344 117.582031 160.996094 116.4375 162.84375 116.304688 C 163.789062 116.234375 165.027344 116.078125 166.179688 115.917969 C 166.992188 102.507812 169.5625 90.074219 169.5625 90.074219 C 172.246094 82.332031 180.296875 77.269531 193.414062 77.269531 C 206.53125 77.269531 228.296875 82.03125 225.613281 114.792969 C 225.429688 117.035156 225.21875 119.160156 224.988281 121.179688 L 228.757812 125.679688 C 230.851562 126.359375 232.722656 128.324219 231.820312 133.472656 C 230.476562 141.140625 223.960938 143.277344 221.46875 140.71875 C 218.332031 152.480469 214.878906 156.191406 214.878906 156.191406 C 213.523438 161.132812 213.304688 164.765625 213.71875 167.644531 C 223.890625 170.4375 245.871094 176.863281 261.5 184.289062 C 272.832031 189.667969 285.347656 200.785156 290.617188 212.160156 C 299.207031 230.695312 299.753906 264.703125 299.753906 264.703125 C 300.597656 268.515625 298.265625 272.308594 294.484375 273.277344"/></g><path fill="#65CBC3" d="M 201.628906 253.746094 C 201.578125 253.746094 201.527344 253.742188 201.476562 253.734375 C 200.847656 253.652344 200.40625 253.078125 200.492188 252.453125 C 200.675781 251.0625 199.46875 250.398438 199.054688 250.214844 C 196.894531 250.097656 176.824219 249.011719 172.273438 248.769531 C 170.96875 248.695312 169.984375 248.953125 169.429688 249.503906 C 168.828125 250.101562 168.839844 250.910156 168.839844 250.917969 C 168.871094 251.550781 168.382812 252.085938 167.75 252.117188 C 167.085938 252.128906 166.578125 251.65625 166.550781 251.027344 C 166.539062 250.84375 166.503906 249.183594 167.8125 247.882812 C 168.855469 246.847656 170.398438 246.378906 172.394531 246.480469 C 177.203125 246.738281 199.367188 247.941406 199.367188 247.941406 C 199.476562 247.945312 199.585938 247.96875 199.691406 248.007812 C 200.914062 248.441406 203.128906 249.988281 202.761719 252.753906 C 202.683594 253.328125 202.191406 253.746094 201.628906 253.746094 Z M 172.289062 252.917969 C 171.152344 252.917969 170.230469 252.285156 170.230469 251.503906 C 170.230469 250.71875 171.152344 250.085938 172.289062 250.085938 C 173.429688 250.085938 174.351562 250.71875 174.351562 251.503906 C 174.351562 252.285156 173.429688 252.917969 172.289062 252.917969 Z M 198.996094 247.316406 L 170.824219 246 C 168.460938 245.886719 166.476562 247.761719 166.460938 250.128906 L 166.320312 268.523438 C 173.480469 268.859375 180.535156 269.394531 180.535156 269.394531 C 180.535156 269.394531 182.082031 264.886719 189.039062 265.917969 C 191.828125 266.328125 196.925781 266.492188 202.234375 266.542969 L 202.96875 251.683594 C 203.078125 249.378906 201.300781 247.421875 198.996094 247.316406"/><path fill="#312E5F" d="M 207.164062 122.617188 C 206.21875 123.566406 206.21875 125.101562 207.164062 126.050781 C 208.113281 126.996094 209.65625 126.996094 210.605469 126.050781 C 211.550781 125.101562 211.550781 123.566406 210.605469 122.617188 C 209.65625 121.667969 208.113281 121.667969 207.164062 122.617188 Z M 184.1875 120.558594 C 183.238281 121.503906 183.238281 123.042969 184.1875 123.992188 C 185.136719 124.9375 186.675781 124.9375 187.625 123.992188 C 188.574219 123.042969 188.574219 121.503906 187.625 120.558594 C 186.675781 119.609375 185.136719 119.609375 184.1875 120.558594 Z M 172.160156 104.898438 C 173.609375 108.660156 172.453125 113.964844 171.164062 117.890625 L 175.125 119.679688 C 177.023438 116.617188 180.410156 114.566406 184.273438 114.566406 C 188.929688 114.566406 192.886719 117.535156 194.386719 121.671875 C 195.949219 121.320312 198.28125 121.058594 200.332031 121.890625 C 200.394531 121.652344 200.457031 121.410156 200.515625 121.171875 C 200.6875 120.515625 200.796875 119.847656 200.949219 119.191406 C 201.023438 118.859375 201.125 118.535156 201.230469 118.210938 L 201.414062 117.730469 C 201.476562 117.570312 201.613281 117.425781 202.054688 117.339844 C 202.429688 117.585938 202.503906 117.769531 202.503906 117.9375 L 202.5 118.449219 C 202.484375 118.789062 202.460938 119.125 202.414062 119.453125 C 202.351562 119.929688 202.28125 120.398438 202.222656 120.871094 C 204.1875 118.789062 206.964844 117.480469 210.042969 117.480469 C 214.636719 117.480469 218.554688 120.375 220.097656 124.429688 L 223.582031 123.585938 C 219.714844 109.769531 198.90625 105.855469 182.984375 102.582031 C 177.378906 101.425781 174.390625 98.402344 172.910156 94.824219 C 171.730469 97.734375 170.859375 101.511719 172.160156 104.898438 Z M 218.519531 128.238281 C 218.519531 127.695312 218.464844 127.164062 218.367188 126.652344 C 218.214844 126.503906 218.089844 126.324219 218.035156 126.105469 C 217.988281 125.898438 218 125.695312 218.058594 125.503906 C 216.917969 122.171875 213.761719 119.769531 210.042969 119.769531 C 206.945312 119.769531 204.234375 121.449219 202.753906 123.9375 C 202.816406 124.296875 202.699219 124.679688 202.414062 124.949219 C 202.339844 125.019531 202.257812 125.074219 202.171875 125.121094 C 201.789062 126.085938 201.566406 127.136719 201.566406 128.238281 C 201.566406 132.90625 205.371094 136.703125 210.042969 136.703125 C 214.71875 136.703125 218.519531 132.90625 218.519531 128.238281 Z M 192.75 125.320312 C 192.75 124.992188 192.726562 124.664062 192.6875 124.34375 C 192.371094 124.242188 192.097656 124.011719 191.96875 123.679688 C 191.796875 123.238281 191.914062 122.753906 192.234375 122.441406 C 191.050781 119.191406 187.933594 116.855469 184.273438 116.855469 C 179.601562 116.855469 175.796875 120.652344 175.796875 125.320312 C 175.796875 129.988281 179.601562 133.785156 184.273438 133.785156 C 188.949219 133.785156 192.75 129.988281 192.75 125.320312 Z M 162.785156 116.3125 C 161.40625 102.78125 160.949219 80.511719 172.71875 79.742188 C 173.378906 77.886719 174.769531 76.378906 176.585938 75.542969 C 194.507812 67.332031 214.84375 68.960938 224.132812 76.066406 C 225.425781 77.054688 219.207031 78.839844 220.351562 80.011719 C 224.207031 83.960938 227.625 85.703125 229.953125 90.335938 C 232.890625 93.335938 235.296875 97.984375 234.613281 105.070312 C 233.820312 113.25 231.46875 120.3125 229 125.765625 C 228.085938 125.421875 227.113281 125.34375 226.292969 125.363281 C 225.09375 127.113281 224.21875 128.066406 224.21875 128.066406 C 224.207031 127.292969 224.136719 126.554688 224.035156 125.832031 L 220.679688 126.640625 C 220.757812 127.164062 220.808594 127.695312 220.808594 128.238281 C 220.808594 134.167969 215.980469 138.992188 210.042969 138.992188 C 205.929688 138.992188 202.347656 136.671875 200.535156 133.269531 C 200.527344 133.28125 200.519531 133.289062 200.511719 133.300781 C 200.269531 133.335938 200.09375 133.292969 199.964844 133.21875 C 199.859375 133.148438 199.792969 133.0625 199.761719 132.960938 C 199.683594 132.773438 199.621094 132.589844 199.566406 132.40625 C 199.46875 132.042969 199.394531 131.683594 199.355469 131.332031 C 199.265625 130.621094 199.273438 129.925781 199.273438 129.230469 C 199.28125 128.992188 199.285156 128.75 199.292969 128.507812 C 199.289062 128.414062 199.277344 128.328125 199.277344 128.238281 C 199.277344 127.789062 199.316406 127.347656 199.367188 126.914062 C 199.414062 126.320312 199.476562 125.726562 199.589844 125.144531 C 199.648438 124.8125 199.710938 124.484375 199.78125 124.15625 C 198.253906 123.375 196.269531 123.601562 194.933594 123.898438 C 194.996094 124.363281 195.039062 124.839844 195.039062 125.320312 C 195.039062 131.25 190.210938 136.074219 184.273438 136.074219 C 178.335938 136.074219 173.507812 131.25 173.507812 125.320312 C 173.507812 124.066406 173.734375 122.863281 174.132812 121.742188 L 170.394531 120.054688 C 170.003906 121.074219 169.648438 121.90625 169.402344 122.449219 C 169.269531 120.855469 168.769531 119.289062 167.78125 117.640625 C 167.78125 117.640625 165.167969 116.109375 162.785156 116.3125 Z M 192.1875 135.082031 C 192.503906 135.414062 192.894531 135.652344 193.269531 135.910156 C 194.03125 136.417969 194.929688 136.789062 195.835938 136.867188 C 196.757812 137 197.625 136.722656 198.441406 136.480469 C 198.832031 136.320312 199.238281 136.1875 199.605469 135.980469 C 199.78125 135.871094 199.957031 135.746094 200.125 135.617188 L 200.375 135.417969 C 200.460938 135.363281 200.515625 135.222656 200.425781 134.757812 C 200.148438 134.363281 200.019531 134.292969 199.925781 134.308594 L 199.628906 134.3125 C 199.433594 134.324219 199.242188 134.335938 199.058594 134.367188 C 198.6875 134.398438 198.332031 134.460938 197.980469 134.519531 C 197.273438 134.570312 196.589844 134.566406 195.949219 134.589844 C 195.308594 134.59375 194.644531 134.628906 194.019531 134.429688 C 193.707031 134.332031 193.425781 134.15625 193.167969 133.964844 C 193.035156 133.875 192.890625 133.78125 192.75 133.691406 C 192.675781 133.648438 192.59375 133.605469 192.527344 133.558594 C 192.449219 133.507812 192.324219 133.519531 191.917969 133.644531 C 191.609375 133.933594 191.589844 134.109375 191.632812 134.210938 C 191.675781 134.324219 191.726562 134.429688 191.777344 134.53125 C 191.890625 134.734375 192.023438 134.921875 192.1875 135.082031 Z M 203.703125 116.421875 L 204.066406 116.410156 C 204.300781 116.378906 204.546875 116.386719 204.78125 116.355469 C 205.246094 116.28125 205.722656 116.253906 206.199219 116.257812 C 207.160156 116.316406 208.105469 116.507812 209.050781 116.648438 C 209.992188 116.824219 210.960938 116.867188 211.929688 117.007812 C 212.417969 117.066406 212.898438 117.164062 213.390625 117.222656 C 213.636719 117.25 213.886719 117.269531 214.140625 117.289062 L 214.519531 117.308594 C 214.640625 117.328125 214.789062 117.269531 215.070312 116.867188 C 215.113281 116.382812 215.019531 116.238281 214.902344 116.175781 L 214.566406 115.960938 C 214.335938 115.824219 214.101562 115.695312 213.863281 115.585938 C 213.386719 115.359375 212.886719 115.207031 212.386719 115.042969 C 211.386719 114.730469 210.359375 114.421875 209.292969 114.378906 C 208.230469 114.3125 207.148438 114.433594 206.089844 114.601562 C 205.5625 114.71875 205.03125 114.742188 204.503906 114.894531 C 204.242188 114.964844 203.984375 115.035156 203.738281 115.164062 L 203.378906 115.367188 C 203.257812 115.433594 203.160156 115.570312 203.175781 116 C 203.433594 116.355469 203.578125 116.425781 203.703125 116.421875 Z M 190.445312 141.835938 C 189.851562 141.683594 189.285156 141.433594 188.707031 141.238281 C 188.136719 141.011719 187.582031 140.746094 187.019531 140.503906 L 186.984375 140.492188 C 186.886719 140.449219 186.78125 140.421875 186.671875 140.414062 C 186.109375 140.363281 185.613281 140.785156 185.5625 141.347656 C 185.511719 141.976562 185.539062 142.445312 185.605469 142.988281 C 185.675781 143.511719 185.796875 144.027344 185.96875 144.535156 C 186.300781 145.554688 186.90625 146.507812 187.6875 147.261719 C 188.464844 148.023438 189.414062 148.566406 190.375 148.9375 C 191.351562 149.296875 192.335938 149.484375 193.332031 149.578125 C 195.316406 149.78125 197.480469 149.355469 199.15625 148.164062 C 200.003906 147.589844 200.6875 146.820312 201.226562 145.992188 C 201.492188 145.574219 201.71875 145.132812 201.898438 144.679688 C 202.082031 144.234375 202.289062 143.757812 201.902344 143.144531 C 201.246094 143.410156 201.089844 143.777344 200.859375 144.15625 C 200.625 144.519531 200.378906 144.875 200.113281 145.203125 C 199.585938 145.867188 198.976562 146.449219 198.296875 146.898438 C 196.929688 147.820312 195.21875 148.035156 193.578125 147.710938 C 191.910156 147.390625 190.355469 146.710938 189.316406 145.628906 C 188.792969 145.085938 188.386719 144.453125 188.078125 143.75 C 187.984375 143.519531 187.90625 143.277344 187.839844 143.035156 C 187.898438 143.054688 187.957031 143.078125 188.015625 143.101562 C 188.652344 143.292969 189.273438 143.539062 189.921875 143.683594 C 191.203125 144.050781 192.527344 144.234375 193.851562 144.351562 C 195.179688 144.453125 196.515625 144.414062 197.832031 144.238281 C 198.488281 144.152344 199.140625 144.015625 199.78125 143.859375 C 200.425781 143.707031 201.082031 143.464844 201.511719 142.757812 C 200.746094 142.5 200.160156 142.558594 199.546875 142.667969 C 198.9375 142.746094 198.320312 142.804688 197.707031 142.8125 C 196.476562 142.855469 195.246094 142.789062 194.03125 142.632812 C 193.425781 142.523438 192.816406 142.453125 192.222656 142.292969 L 191.328125 142.09375 Z M 180.675781 114.339844 L 181.023438 114.226562 C 181.234375 114.128906 181.480469 114.101562 181.695312 114.019531 C 181.914062 113.941406 182.128906 113.855469 182.363281 113.824219 C 182.59375 113.785156 182.816406 113.71875 183.058594 113.714844 C 184.003906 113.664062 184.953125 113.867188 185.894531 114.023438 C 186.835938 114.210938 187.8125 114.335938 188.789062 114.566406 C 189.277344 114.675781 189.753906 114.828125 190.25 114.941406 C 190.5 114.996094 190.75 115.054688 191.007812 115.101562 L 191.390625 115.171875 C 191.515625 115.207031 191.671875 115.164062 192.003906 114.808594 C 192.109375 114.328125 192.027344 114.175781 191.914062 114.09375 L 191.589844 113.832031 C 191.363281 113.667969 191.140625 113.503906 190.902344 113.367188 C 190.429688 113.085938 189.925781 112.867188 189.417969 112.652344 C 188.402344 112.238281 187.34375 111.832031 186.203125 111.761719 C 185.070312 111.664062 183.902344 111.773438 182.78125 112.082031 C 182.5 112.140625 182.222656 112.253906 181.945312 112.328125 C 181.664062 112.398438 181.394531 112.507812 181.128906 112.644531 C 180.871094 112.777344 180.605469 112.894531 180.390625 113.109375 L 180.070312 113.414062 C 179.964844 113.515625 179.902344 113.683594 180.042969 114.085938 C 180.402344 114.347656 180.558594 114.378906 180.675781 114.339844 Z M 161.644531 177.917969 L 162.207031 177.664062 C 162.574219 177.484375 162.949219 177.304688 163.308594 177.109375 C 164.007812 176.671875 164.679688 176.191406 165.347656 175.703125 C 166.632812 174.660156 167.953125 173.59375 168.902344 172.175781 C 169.890625 170.804688 170.636719 169.25 171.117188 167.621094 C 171.355469 166.808594 171.585938 165.992188 171.6875 165.148438 C 171.753906 164.730469 171.746094 164.296875 171.726562 163.871094 C 171.703125 163.652344 171.683594 163.441406 171.640625 163.226562 C 171.605469 163.015625 171.484375 162.789062 171.042969 162.648438 C 170.660156 162.898438 170.5625 163.070312 170.535156 163.261719 C 170.519531 163.441406 170.46875 163.628906 170.441406 163.8125 C 170.371094 164.179688 170.304688 164.546875 170.21875 164.910156 C 170.085938 165.640625 169.847656 166.359375 169.558594 167.046875 C 168.933594 168.417969 168.019531 169.628906 167.085938 170.792969 L 166.367188 171.660156 C 166.109375 171.9375 165.855469 172.214844 165.613281 172.507812 C 165.140625 173.101562 164.5625 173.613281 164.039062 174.171875 C 163.472656 174.695312 162.875 175.183594 162.3125 175.726562 C 162.011719 175.972656 161.71875 176.234375 161.425781 176.503906 L 160.996094 176.914062 C 160.84375 177.039062 160.738281 177.238281 160.820312 177.75 C 161.238281 178.039062 161.464844 178.011719 161.644531 177.917969 Z M 214.71875 158.722656 L 214.691406 157.96875 C 214.691406 157.722656 214.609375 157.460938 214.167969 157.152344 C 213.675781 157.347656 213.546875 157.585938 213.5 157.835938 L 213.328125 158.582031 C 213.21875 159.078125 213.113281 159.578125 213.027344 160.078125 C 212.820312 161.078125 212.8125 162.105469 212.703125 163.121094 C 212.542969 165.152344 212.5 167.230469 212.804688 169.292969 C 213.144531 171.347656 213.71875 173.40625 214.769531 175.289062 C 215.058594 175.75 215.277344 176.238281 215.636719 176.660156 C 215.804688 176.878906 215.960938 177.097656 216.132812 177.3125 L 216.71875 177.902344 C 217.128906 178.273438 217.597656 178.601562 218.117188 178.835938 C 218.363281 178.964844 218.652344 179.027344 218.917969 179.113281 C 219.191406 179.175781 219.53125 179.164062 219.835938 178.78125 C 219.734375 178.566406 219.65625 178.398438 219.570312 178.304688 C 219.488281 178.183594 219.398438 178.121094 219.296875 178.078125 C 219.113281 177.953125 218.917969 177.863281 218.746094 177.710938 C 218.386719 177.460938 218.0625 177.152344 217.753906 176.832031 C 217.113281 176.210938 216.648438 175.394531 216.257812 174.554688 C 215.535156 172.824219 215.300781 170.902344 215.070312 169.007812 C 215.019531 168.039062 214.878906 167.089844 214.847656 166.109375 C 214.800781 165.136719 214.691406 164.164062 214.71875 163.175781 C 214.734375 162.191406 214.6875 161.207031 214.726562 160.214844 C 214.734375 159.71875 214.726562 159.222656 214.71875 158.722656 Z M 158.757812 180.625 C 159.382812 182.523438 160.148438 184.375 161.015625 186.175781 C 162.773438 189.773438 164.949219 193.199219 167.683594 196.1875 C 169.035156 197.691406 170.527344 199.089844 172.183594 200.285156 C 173.832031 201.480469 175.597656 202.5625 177.507812 203.332031 C 179.410156 204.109375 181.398438 204.710938 183.441406 204.992188 C 184.453125 205.195312 185.480469 205.21875 186.507812 205.304688 C 187.019531 205.347656 187.535156 205.308594 188.046875 205.316406 C 188.554688 205.296875 189.074219 205.332031 189.582031 205.273438 C 191.632812 205.105469 193.628906 204.820312 195.605469 204.359375 C 197.59375 203.949219 199.535156 203.324219 201.429688 202.597656 C 203.316406 201.84375 205.148438 200.945312 206.90625 199.917969 C 208.644531 198.863281 210.304688 197.679688 211.855469 196.367188 C 214.941406 193.722656 217.574219 190.570312 219.613281 187.089844 C 220.644531 185.355469 221.507812 183.53125 222.238281 181.660156 C 222.601562 180.726562 222.925781 179.773438 223.21875 178.8125 C 223.511719 177.859375 223.699219 176.84375 223.445312 175.777344 C 222.777344 176.636719 222.40625 177.519531 222.082031 178.4375 C 221.742188 179.347656 221.375 180.242188 220.96875 181.125 C 220.160156 182.886719 219.199219 184.574219 218.167969 186.207031 C 216.074219 189.449219 213.53125 192.390625 210.5625 194.820312 C 204.628906 199.726562 197.027344 202.296875 189.421875 202.996094 C 188.949219 203.066406 188.476562 203.039062 188 203.066406 C 187.527344 203.070312 187.050781 203.121094 186.578125 203.089844 C 185.632812 203.027344 184.679688 203.03125 183.75 202.863281 C 181.867188 202.648438 180.035156 202.132812 178.269531 201.460938 C 176.492188 200.808594 174.828125 199.859375 173.253906 198.789062 C 171.671875 197.722656 170.230469 196.445312 168.898438 195.058594 C 166.226562 192.277344 164.105469 188.984375 162.34375 185.519531 C 161.460938 183.789062 160.675781 182 159.945312 180.195312 C 159.578125 179.289062 159.253906 178.367188 158.9375 177.445312 C 158.625 176.515625 158.265625 175.613281 157.644531 174.746094 C 157.457031 175.800781 157.617188 176.804688 157.882812 177.765625 C 158.152344 178.722656 158.433594 179.683594 158.757812 180.625 Z M 179.617188 156.8125 C 179.035156 156.230469 178.46875 155.632812 177.898438 155.039062 L 177.046875 154.140625 C 176.765625 153.835938 176.4375 153.582031 175.855469 153.484375 C 175.761719 154.070312 175.941406 154.476562 176.179688 154.828125 C 176.417969 155.175781 176.664062 155.527344 176.914062 155.867188 C 177.421875 156.550781 177.976562 157.199219 178.546875 157.832031 C 179.703125 159.082031 180.945312 160.257812 182.269531 161.351562 C 183.582031 162.460938 185.007812 163.46875 186.570312 164.296875 C 187.351562 164.703125 188.175781 165.050781 189.03125 165.347656 C 189.894531 165.609375 190.785156 165.8125 191.703125 165.914062 C 192.605469 165.992188 193.597656 165.980469 194.429688 165.855469 C 194.863281 165.796875 195.296875 165.765625 195.726562 165.6875 L 197.003906 165.433594 C 198.695312 165.046875 200.351562 164.546875 201.953125 163.9375 C 203.554688 163.3125 205.117188 162.609375 206.605469 161.769531 C 207.355469 161.363281 208.078125 160.902344 208.785156 160.429688 C 209.136719 160.183594 209.484375 159.941406 209.828125 159.6875 C 210.175781 159.445312 210.484375 159.117188 210.5625 158.492188 C 209.945312 158.34375 209.558594 158.472656 209.191406 158.671875 C 208.828125 158.863281 208.457031 159.042969 208.085938 159.222656 C 207.34375 159.578125 206.597656 159.921875 205.84375 160.257812 C 204.339844 160.910156 202.828125 161.527344 201.277344 162.039062 C 199.726562 162.539062 198.148438 162.929688 196.5625 163.21875 C 195.769531 163.339844 194.976562 163.476562 194.179688 163.546875 C 193.355469 163.667969 192.664062 163.679688 191.902344 163.636719 C 188.890625 163.421875 185.910156 161.949219 183.296875 160.050781 C 181.988281 159.082031 180.777344 157.972656 179.617188 156.8125 Z M 97.703125 232.804688 C 97.941406 233.175781 98.171875 233.554688 98.421875 233.910156 C 98.917969 234.636719 99.40625 235.367188 99.84375 236.128906 C 100.691406 237.671875 101.425781 239.265625 102.148438 240.855469 C 102.84375 242.457031 103.660156 244.003906 104.3125 245.628906 C 104.671875 246.433594 104.941406 247.261719 105.28125 248.078125 L 105.78125 249.304688 L 106.042969 249.921875 C 106.117188 250.132812 106.273438 250.320312 106.792969 250.429688 C 107.195312 250.105469 107.238281 249.863281 107.203125 249.636719 L 107.132812 248.953125 C 107.074219 248.5 107.023438 248.039062 106.917969 247.597656 C 106.726562 246.703125 106.496094 245.816406 106.214844 244.949219 C 105.691406 243.199219 105.066406 241.464844 104.199219 239.847656 C 103.363281 238.21875 102.3125 236.707031 101.238281 235.234375 C 100.710938 234.488281 100.175781 233.75 99.621094 233.03125 C 99.332031 232.675781 99.035156 232.328125 98.707031 232.003906 C 98.546875 231.84375 98.375 231.6875 98.203125 231.53125 C 98.039062 231.375 97.800781 231.265625 97.339844 231.378906 C 97.179688 231.824219 97.238281 232.054688 97.359375 232.242188 Z M 105.785156 268.289062 C 106.398438 268.503906 107.023438 268.691406 107.644531 268.882812 L 108.585938 269.152344 C 108.894531 269.253906 109.234375 269.277344 109.710938 268.960938 C 109.585938 268.40625 109.324219 268.1875 109.035156 268.042969 L 108.167969 267.589844 C 107.589844 267.289062 107.011719 266.992188 106.421875 266.722656 C 105.25 266.15625 104.058594 265.640625 102.875 265.113281 C 100.496094 264.070312 98.140625 262.976562 95.707031 262.070312 C 93.289062 261.136719 90.824219 260.3125 88.375 259.445312 C 87.15625 258.996094 85.949219 258.527344 84.734375 258.0625 C 84.128906 257.835938 83.515625 257.628906 82.894531 257.425781 L 81.957031 257.144531 C 81.644531 257.054688 81.304688 257.03125 80.847656 257.292969 C 80.992188 257.800781 81.253906 258.019531 81.542969 258.171875 L 82.410156 258.617188 C 82.996094 258.90625 83.582031 259.183594 84.175781 259.441406 C 85.371094 259.953125 86.566406 260.453125 87.753906 260.980469 C 90.117188 262.054688 92.460938 263.171875 94.851562 264.183594 C 97.230469 265.222656 99.683594 266.078125 102.117188 266.980469 C 103.335938 267.425781 104.550781 267.882812 105.785156 268.289062 Z M 269.109375 249.082031 L 269.894531 248.265625 C 270.425781 247.722656 270.933594 247.164062 271.394531 246.566406 C 271.867188 245.980469 272.355469 245.402344 272.8125 244.796875 L 274.125 242.953125 C 275.855469 240.480469 277.503906 237.929688 278.824219 235.214844 C 280.183594 232.519531 281.328125 229.722656 282.367188 226.902344 C 282.890625 225.492188 283.429688 224.089844 283.90625 222.664062 C 284.140625 221.945312 284.371094 221.230469 284.550781 220.5 C 284.648438 220.136719 284.726562 219.769531 284.8125 219.402344 C 284.898438 219.035156 284.90625 218.636719 284.605469 218.164062 C 284.105469 218.410156 283.898438 218.726562 283.757812 219.074219 L 283.332031 220.097656 L 282.515625 222.164062 L 281.707031 224.230469 L 280.832031 226.269531 C 279.605469 228.964844 278.199219 231.570312 276.800781 234.160156 C 275.386719 236.746094 274.003906 239.34375 272.445312 241.84375 L 271.269531 243.71875 C 270.84375 244.320312 270.445312 244.941406 270.039062 245.554688 L 269.433594 246.484375 L 268.804688 247.398438 L 268.183594 248.320312 C 267.964844 248.621094 267.816406 248.976562 267.941406 249.570312 C 268.535156 249.585938 268.851562 249.359375 269.109375 249.082031 Z M 296.019531 257.863281 L 294.925781 257.90625 C 294.203125 257.96875 293.484375 258.066406 292.765625 258.171875 C 292.046875 258.261719 291.347656 258.421875 290.640625 258.566406 C 289.933594 258.710938 289.230469 258.878906 288.539062 259.0625 C 285.746094 259.761719 282.988281 260.570312 280.324219 261.621094 C 277.652344 262.648438 275.054688 263.851562 272.476562 265.070312 L 268.589844 266.847656 C 267.941406 267.148438 267.3125 267.484375 266.679688 267.820312 L 265.75 268.351562 C 265.441406 268.53125 265.160156 268.777344 265.019531 269.304688 C 265.519531 269.527344 265.886719 269.472656 266.21875 269.351562 L 267.21875 268.988281 C 267.882812 268.738281 268.542969 268.476562 269.195312 268.207031 C 270.496094 267.652344 271.800781 267.101562 273.125 266.59375 C 275.773438 265.59375 278.453125 264.691406 281.113281 263.765625 C 283.78125 262.859375 286.402344 261.832031 289.085938 261.003906 C 289.753906 260.78125 290.421875 260.574219 291.097656 260.398438 C 291.773438 260.226562 292.441406 259.976562 293.117188 259.824219 C 293.796875 259.664062 294.46875 259.460938 295.144531 259.285156 L 296.167969 259.054688 C 296.511719 258.988281 296.839844 258.839844 297.148438 258.324219 C 296.753906 257.898438 296.378906 257.839844 296.019531 257.863281 Z M 281.453125 329.0625 C 281.367188 328.59375 281.316406 328.113281 281.144531 327.667969 C 280.855469 326.761719 280.53125 325.859375 280.058594 325.019531 C 279.65625 324.140625 279.105469 323.347656 278.570312 322.535156 C 277.96875 321.785156 277.34375 321.027344 276.597656 320.414062 C 275.15625 319.121094 273.472656 318.148438 271.734375 317.394531 C 270.867188 317.019531 270 316.648438 269.101562 316.359375 C 268.652344 316.214844 268.191406 316.105469 267.726562 316.027344 C 267.496094 315.980469 267.253906 315.960938 267.019531 315.933594 C 266.785156 315.90625 266.519531 315.960938 266.222656 316.332031 C 266.375 316.78125 266.554688 316.925781 266.761719 317.007812 C 266.96875 317.09375 267.175781 317.167969 267.378906 317.261719 L 268.601562 317.757812 C 269.011719 317.917969 269.410156 318.101562 269.816406 318.269531 L 270.980469 318.871094 C 272.492188 319.765625 273.828125 320.890625 275.039062 322.085938 C 276.238281 323.289062 277.410156 324.535156 278.304688 326.011719 C 278.804688 326.714844 279.136719 327.511719 279.554688 328.28125 C 279.78125 328.65625 279.929688 329.070312 280.117188 329.472656 L 280.398438 330.074219 C 280.480469 330.285156 280.648438 330.464844 281.171875 330.574219 C 281.566406 330.246094 281.601562 329.992188 281.554688 329.761719 Z M 226.800781 269.332031 C 226.238281 268.699219 225.644531 268.066406 225.035156 267.433594 C 224.371094 266.792969 223.628906 266.210938 222.789062 265.773438 C 221.945312 265.34375 221.039062 265.066406 220.152344 264.902344 C 219.265625 264.734375 218.398438 264.671875 217.589844 264.5625 C 216.777344 264.457031 216.023438 264.296875 215.347656 263.988281 C 214.660156 263.6875 214.152344 263.222656 213.332031 262.660156 C 211.800781 261.675781 210.152344 261.054688 208.480469 260.597656 C 207.648438 260.367188 206.808594 260.164062 205.964844 259.996094 C 205.121094 259.828125 204.25 259.761719 203.34375 260.039062 C 204.113281 260.578125 204.902344 260.855469 205.714844 261.070312 C 206.523438 261.28125 207.320312 261.53125 208.105469 261.800781 C 209.664062 262.359375 211.203125 262.996094 212.507812 263.886719 L 213.492188 264.636719 C 213.859375 264.933594 214.285156 265.167969 214.714844 265.375 C 215.582031 265.78125 216.503906 265.980469 217.371094 266.101562 C 219.105469 266.335938 220.679688 266.5 222.007812 267.234375 C 222.660156 267.609375 223.246094 268.101562 223.78125 268.652344 C 224.328125 269.261719 224.871094 269.886719 225.414062 270.542969 L 228.644531 274.453125 L 235.082031 282.316406 C 239.390625 287.546875 243.792969 292.703125 248.1875 297.863281 C 250.386719 300.445312 252.570312 303.039062 254.800781 305.59375 C 255.898438 306.882812 257.035156 308.144531 258.160156 309.414062 L 259.847656 311.316406 C 260.402344 311.957031 261.023438 312.542969 261.929688 312.898438 C 261.753906 311.945312 261.296875 311.222656 260.773438 310.554688 L 259.222656 308.535156 C 258.1875 307.191406 257.164062 305.839844 256.105469 304.515625 C 254.011719 301.847656 251.871094 299.21875 249.742188 296.578125 C 245.484375 291.300781 241.222656 286.023438 236.835938 280.851562 L 230.1875 273.148438 Z M 248.660156 354.667969 C 244.761719 350.390625 241.359375 345.667969 238.308594 340.730469 C 235.253906 335.792969 232.515625 330.65625 230.042969 325.398438 C 227.582031 320.140625 225.320312 314.742188 223.433594 309.292969 C 223.289062 308.890625 222.910156 308.585938 222.457031 308.566406 C 214.824219 308.199219 207.175781 307.738281 199.59375 307.039062 C 198.644531 306.957031 197.703125 306.851562 196.761719 306.746094 C 195.863281 306.636719 195 306.460938 194.132812 306.214844 C 192.40625 305.722656 190.734375 304.945312 189.148438 304.027344 C 187.558594 303.097656 186.050781 302.007812 184.621094 300.820312 C 183.199219 299.640625 181.808594 298.332031 180.617188 296.988281 L 180.597656 296.96875 C 180.542969 296.90625 180.484375 296.855469 180.417969 296.804688 C 180.359375 296.765625 180.300781 296.734375 180.242188 296.707031 C 180.089844 296.4375 179.960938 296.359375 179.832031 296.347656 L 179.394531 296.304688 C 179.105469 296.285156 178.8125 296.28125 178.523438 296.292969 C 177.949219 296.320312 177.375 296.386719 176.800781 296.390625 C 175.640625 296.402344 174.480469 296.367188 173.332031 296.445312 C 172.175781 296.496094 171.042969 296.742188 169.90625 296.945312 C 169.339844 297.050781 168.769531 297.136719 168.207031 297.28125 C 167.921875 297.347656 167.644531 297.4375 167.363281 297.523438 L 166.945312 297.671875 C 166.804688 297.707031 166.671875 297.824219 166.578125 298.3125 C 166.773438 298.761719 166.925781 298.855469 167.070312 298.859375 L 167.511719 298.914062 C 167.804688 298.941406 168.09375 298.964844 168.386719 298.972656 C 168.96875 298.996094 169.542969 298.960938 170.121094 298.945312 C 171.273438 298.90625 172.433594 298.910156 173.570312 298.714844 C 174.710938 298.550781 175.839844 298.273438 176.972656 298.039062 C 177.398438 297.953125 177.820312 297.894531 178.246094 297.835938 C 177.136719 299.21875 175.835938 300.453125 174.347656 301.445312 C 172.597656 302.636719 170.628906 303.527344 168.578125 304.171875 C 166.519531 304.8125 164.375 305.214844 162.207031 305.410156 C 160.050781 305.601562 157.8125 305.625 155.714844 305.40625 L 155.679688 305.402344 C 155.199219 305.351562 154.746094 305.664062 154.628906 306.148438 C 153.160156 312.355469 151.347656 318.484375 149.035156 324.425781 C 146.734375 330.367188 143.808594 336.058594 140.277344 341.339844 C 136.6875 346.5625 132.421875 351.378906 127.273438 355.074219 C 124.726562 356.941406 121.949219 358.5 119.03125 359.714844 C 117.566406 360.304688 116.0625 360.789062 114.539062 361.203125 C 113.011719 361.625 111.484375 362.011719 109.882812 362.324219 C 111.5 362.609375 113.160156 362.472656 114.765625 362.183594 C 116.371094 361.871094 117.929688 361.367188 119.460938 360.804688 C 122.507812 359.621094 125.40625 358.078125 128.085938 356.207031 C 130.746094 354.320312 133.21875 352.167969 135.453125 349.804688 C 137.691406 347.441406 139.703125 344.878906 141.570312 342.21875 C 145.214844 336.847656 148.199219 331.050781 150.617188 325.054688 C 152.9375 319.316406 154.792969 313.40625 156.324219 307.425781 C 158.367188 307.609375 160.359375 307.601562 162.378906 307.441406 C 164.675781 307.261719 166.96875 306.855469 169.195312 306.183594 C 171.421875 305.507812 173.589844 304.558594 175.558594 303.246094 C 177.152344 302.199219 178.589844 300.898438 179.828125 299.425781 C 182.25 301.996094 184.941406 304.199219 187.988281 306.003906 C 189.707031 307.003906 191.535156 307.863281 193.492188 308.425781 C 194.464844 308.707031 195.480469 308.914062 196.492188 309.035156 C 197.453125 309.140625 198.410156 309.25 199.371094 309.335938 C 203.207031 309.710938 207.039062 309.9375 210.871094 310.164062 C 214.464844 310.367188 218.058594 310.535156 221.65625 310.675781 C 223.59375 316.007812 225.8125 321.164062 228.25 326.25 C 230.804688 331.542969 233.601562 336.730469 236.777344 341.691406 C 239.960938 346.644531 243.46875 351.421875 247.589844 355.671875 C 249.640625 357.800781 251.84375 359.792969 254.21875 361.570312 C 256.582031 363.339844 259.167969 364.945312 262.097656 365.582031 C 259.675781 363.859375 257.253906 362.371094 254.972656 360.582031 C 252.710938 358.796875 250.609375 356.796875 248.660156 354.667969 Z M 121.984375 298.511719 L 134.035156 285.675781 C 138.070312 281.441406 142.027344 277.042969 146.265625 273.160156 L 146.304688 273.125 L 146.339844 273.089844 C 147.613281 271.804688 149.140625 270.585938 150.6875 269.507812 C 152.25 268.429688 153.878906 267.4375 155.585938 266.589844 C 157.296875 265.746094 159.050781 264.996094 160.871094 264.40625 C 161.78125 264.121094 162.699219 263.851562 163.632812 263.644531 C 164.570312 263.429688 165.492188 263.191406 166.40625 262.613281 C 165.386719 262.269531 164.375 262.296875 163.402344 262.476562 C 162.421875 262.632812 161.453125 262.851562 160.488281 263.09375 C 158.566406 263.59375 156.671875 264.234375 154.863281 265.070312 C 153.050781 265.898438 151.289062 266.84375 149.632812 267.957031 C 147.960938 269.070312 146.394531 270.25 144.894531 271.699219 L 144.96875 271.632812 C 143.847656 272.628906 142.710938 273.617188 141.667969 274.652344 C 140.589844 275.671875 139.539062 276.710938 138.503906 277.757812 C 136.414062 279.839844 134.363281 281.949219 132.355469 284.101562 C 128.304688 288.367188 124.40625 292.769531 120.484375 297.144531 L 108.835938 310.382812 C 106.878906 312.574219 104.9375 314.777344 103.011719 316.996094 L 100.167969 320.363281 C 99.234375 321.5 98.179688 322.53125 97.683594 324.050781 C 99.136719 323.375 100.03125 322.207031 101.054688 321.152344 L 104.0625 317.9375 L 109.992188 311.417969 C 113.941406 307.074219 117.960938 302.789062 121.984375 298.511719 Z M 224.5625 293.757812 L 224.46875 293.589844 C 224.453125 293.535156 224.339844 293.472656 223.875 293.417969 C 223.40625 293.464844 223.289062 293.503906 223.273438 293.546875 L 223.167969 293.679688 C 223.101562 293.773438 223.039062 293.859375 222.992188 293.949219 C 222.894531 294.125 222.847656 294.300781 222.777344 294.472656 C 222.640625 294.816406 222.445312 295.125 222.421875 295.453125 C 222.359375 295.773438 222.398438 296.132812 222.324219 296.4375 C 222.289062 296.597656 222.195312 296.707031 222.121094 296.820312 C 222.082031 296.871094 222.066406 296.957031 222.035156 297.027344 L 222 297.15625 C 221.980469 297.199219 222.011719 297.316406 222.15625 297.707031 C 222.386719 298.050781 222.5 298.109375 222.570312 298.101562 C 222.640625 298.09375 222.714844 298.085938 222.789062 298.070312 C 222.929688 298.035156 223.042969 297.96875 223.15625 297.890625 C 223.375 297.726562 223.535156 297.519531 223.714844 297.339844 C 224.082031 296.972656 224.421875 296.578125 224.601562 296.132812 C 224.8125 295.695312 224.789062 295.210938 224.769531 294.765625 C 224.757812 294.539062 224.753906 294.316406 224.691406 294.09375 C 224.664062 293.980469 224.613281 293.867188 224.5625 293.757812 Z M 225.144531 286.226562 L 225.296875 286.0625 C 225.394531 285.949219 225.476562 285.824219 225.523438 285.691406 C 225.636719 285.429688 225.695312 285.15625 225.800781 284.890625 C 226 284.355469 226.226562 283.792969 226.257812 283.21875 C 226.332031 282.640625 226.160156 282.078125 225.996094 281.539062 C 225.902344 281.269531 225.828125 281 225.683594 280.746094 C 225.613281 280.621094 225.527344 280.503906 225.433594 280.382812 L 225.277344 280.210938 C 225.242188 280.152344 225.109375 280.113281 224.648438 280.203125 C 224.226562 280.417969 224.136719 280.496094 224.132812 280.5625 L 224.085938 280.757812 C 224.0625 280.882812 224.035156 281.011719 224.023438 281.132812 C 223.996094 281.378906 224.011719 281.613281 224 281.847656 C 223.992188 282.316406 223.902344 282.773438 223.972656 283.21875 C 224.015625 283.664062 224.144531 284.125 224.164062 284.59375 C 224.183594 284.828125 224.128906 285.054688 224.09375 285.28125 C 224.082031 285.394531 224.082031 285.515625 224.085938 285.640625 L 224.109375 285.835938 C 224.117188 285.902344 224.203125 285.996094 224.5625 286.210938 C 224.964844 286.308594 225.09375 286.28125 225.144531 286.226562 Z M 146.324219 298.996094 C 146.109375 298.871094 145.886719 298.757812 145.65625 298.65625 L 145.300781 298.511719 C 145.183594 298.464844 145.019531 298.480469 144.671875 298.738281 C 144.527344 299.148438 144.566406 299.308594 144.652344 299.410156 L 144.914062 299.703125 C 145.09375 299.886719 145.28125 300.066406 145.480469 300.21875 C 145.882812 300.539062 146.308594 300.816406 146.707031 301.140625 C 147.496094 301.789062 148.296875 302.453125 149.179688 302.992188 C 150.046875 303.5625 151.042969 303.921875 152.050781 304.253906 C 152.550781 304.421875 153.074219 304.570312 153.609375 304.65625 C 153.882812 304.6875 154.160156 304.703125 154.433594 304.710938 L 154.863281 304.679688 C 155.003906 304.679688 155.15625 304.59375 155.324219 304.144531 C 155.242188 303.65625 155.152344 303.535156 155.039062 303.496094 L 154.726562 303.347656 C 154.511719 303.230469 154.304688 303.117188 154.09375 303.023438 C 153.675781 302.800781 153.246094 302.628906 152.824219 302.390625 C 151.976562 301.953125 151.171875 301.410156 150.292969 301 C 149.421875 300.5625 148.496094 300.191406 147.605469 299.746094 C 147.160156 299.523438 146.75 299.25 146.324219 298.996094 Z M 151.917969 286.816406 C 151.871094 286.351562 151.710938 285.859375 151.652344 285.355469 C 151.617188 285.097656 151.644531 284.847656 151.644531 284.597656 C 151.648438 284.46875 151.625 284.339844 151.601562 284.207031 L 151.539062 284.007812 C 151.523438 283.941406 151.421875 283.863281 151.03125 283.722656 C 150.613281 283.710938 150.492188 283.761719 150.449219 283.824219 L 150.328125 284.011719 C 150.261719 284.140625 150.207031 284.269531 150.171875 284.402344 C 150.101562 284.671875 150.078125 284.945312 150 285.214844 C 149.847656 285.753906 149.65625 286.3125 149.636719 286.898438 C 149.582031 287.484375 149.777344 288.085938 150.027344 288.683594 C 150.152344 288.980469 150.3125 289.296875 150.546875 289.5625 C 150.683594 289.699219 150.835938 289.820312 150.984375 289.921875 L 151.257812 290.039062 C 151.332031 290.085938 151.484375 290.066406 151.804688 289.726562 C 152.023438 289.304688 152.078125 289.195312 152.058594 289.152344 L 152.042969 289.007812 C 152.039062 288.894531 152.042969 288.796875 152.023438 288.71875 C 152.023438 288.519531 151.972656 288.351562 151.96875 288.136719 C 151.941406 287.722656 152.007812 287.273438 151.917969 286.816406 Z M 151.546875 270.679688 C 151.148438 270.546875 151.019531 270.5625 150.960938 270.613281 L 150.792969 270.761719 C 150.691406 270.863281 150.597656 270.976562 150.53125 271.097656 C 150.394531 271.335938 150.300781 271.597656 150.15625 271.839844 C 149.875 272.328125 149.558594 272.835938 149.421875 273.425781 C 149.257812 274.007812 149.320312 274.648438 149.492188 275.285156 C 149.519531 275.441406 149.585938 275.601562 149.640625 275.757812 C 149.691406 275.914062 149.761719 276.066406 149.871094 276.210938 C 149.972656 276.347656 150.066406 276.488281 150.210938 276.597656 L 150.421875 276.757812 C 150.480469 276.8125 150.621094 276.824219 151.03125 276.597656 C 151.367188 276.265625 151.441406 276.167969 151.433594 276.113281 L 151.441406 275.941406 C 151.4375 275.835938 151.472656 275.714844 151.46875 275.621094 C 151.476562 275.425781 151.472656 275.234375 151.492188 275.039062 C 151.515625 274.644531 151.679688 274.238281 151.675781 273.800781 C 151.707031 273.367188 151.664062 272.871094 151.722656 272.382812 C 151.75 272.132812 151.839844 271.910156 151.902344 271.671875 C 151.9375 271.554688 151.953125 271.429688 151.957031 271.296875 L 151.957031 271.09375 C 151.957031 271.027344 151.882812 270.925781 151.546875 270.679688 Z M 201.257812 298.835938 C 198.289062 298.6875 195.328125 298.371094 192.390625 297.914062 C 192.574219 298.011719 192.761719 298.105469 192.949219 298.199219 C 193.671875 298.585938 194.398438 298.957031 195.160156 299.167969 C 195.925781 299.394531 196.648438 299.433594 197.472656 299.355469 C 198.289062 299.292969 199.125 299.160156 199.957031 299.050781 C 200.390625 298.980469 200.824219 298.910156 201.257812 298.835938 Z M 187.167969 279.871094 C 184.335938 280.320312 181.492188 280.695312 178.640625 280.867188 L 182.105469 281.484375 C 185.554688 282.050781 189.007812 282.570312 192.441406 283.203125 C 195.882812 283.808594 199.285156 284.605469 202.695312 285.355469 C 204.402344 285.738281 206.105469 286.105469 207.800781 286.527344 C 208.652344 286.726562 209.5 286.953125 210.34375 287.175781 L 210.8125 287.304688 C 211.421875 287.332031 212.027344 287.359375 212.632812 287.386719 C 212.976562 287.402344 213.246094 287.691406 213.234375 288.039062 C 213.222656 288.375 212.941406 288.636719 212.609375 288.640625 C 212.488281 288.640625 212.367188 288.636719 212.246094 288.636719 C 211.941406 288.738281 211.65625 288.742188 211.378906 288.703125 L 210.800781 288.632812 C 204.539062 288.625 198.28125 288.496094 192.019531 288.300781 C 188.582031 288.171875 185.148438 288.0625 181.679688 287.714844 C 179.988281 287.542969 178.289062 287.367188 176.648438 287.328125 C 175.839844 287.3125 175.011719 287.332031 174.367188 287.476562 C 174.050781 287.542969 173.792969 287.648438 173.691406 287.742188 C 173.589844 287.828125 173.539062 287.910156 173.484375 288.167969 C 173.433594 288.410156 173.4375 288.769531 173.46875 289.136719 L 173.476562 289.238281 C 173.476562 289.238281 173.476562 289.238281 173.492188 289.265625 C 173.53125 289.324219 173.601562 289.425781 173.714844 289.53125 C 174.148438 289.96875 174.859375 290.402344 175.558594 290.777344 C 176.984375 291.523438 178.542969 292.152344 180.121094 292.722656 C 183.285156 293.851562 186.570312 294.722656 189.882812 295.429688 C 196.507812 296.824219 203.324219 297.652344 210.070312 297.191406 L 210.082031 297.1875 C 210.511719 297.160156 210.882812 297.484375 210.914062 297.914062 C 210.941406 298.304688 210.664062 298.652344 210.289062 298.726562 C 206.925781 299.398438 203.566406 300.015625 200.144531 300.445312 C 199.289062 300.554688 198.429688 300.632812 197.542969 300.660156 C 196.667969 300.714844 195.660156 300.609375 194.800781 300.300781 C 193.304688 299.757812 191.902344 298.957031 190.992188 297.683594 C 190.488281 297.597656 189.980469 297.519531 189.480469 297.425781 C 186.074219 296.765625 182.703125 295.941406 179.386719 294.832031 C 177.726562 294.269531 176.082031 293.648438 174.476562 292.796875 C 173.722656 292.382812 172.972656 291.960938 172.230469 291.28125 L 172.1875 291.296875 C 171.988281 291.359375 171.792969 291.417969 171.597656 291.460938 C 171.207031 291.550781 170.8125 291.582031 170.417969 291.636719 C 169.632812 291.734375 168.847656 291.871094 168.058594 291.8125 C 167.269531 291.789062 166.480469 291.632812 165.691406 291.546875 C 165.296875 291.496094 164.902344 291.503906 164.507812 291.480469 C 164.3125 291.46875 164.113281 291.4375 163.914062 291.390625 L 163.617188 291.304688 C 163.519531 291.277344 163.421875 291.167969 163.3125 290.757812 C 163.40625 290.34375 163.5 290.234375 163.597656 290.203125 L 163.890625 290.105469 C 164.085938 290.054688 164.285156 290.015625 164.480469 289.996094 C 164.875 289.953125 165.269531 289.953125 165.660156 289.886719 C 166.445312 289.769531 167.230469 289.582031 168.015625 289.53125 C 168.804688 289.445312 169.59375 289.554688 170.382812 289.625 C 170.664062 289.648438 170.945312 289.675781 171.230469 289.710938 C 171.214844 289.648438 171.199219 289.585938 171.191406 289.527344 L 171.171875 289.332031 C 171.136719 288.847656 171.105469 288.34375 171.214844 287.746094 C 171.308594 287.164062 171.640625 286.417969 172.21875 285.96875 C 172.777344 285.507812 173.363281 285.339844 173.875 285.21875 C 174.910156 285.011719 175.816406 285.035156 176.714844 285.0625 C 178.503906 285.140625 180.214844 285.347656 181.929688 285.550781 C 185.277344 285.929688 188.699219 286.179688 192.109375 286.390625 C 194.421875 286.539062 196.742188 286.660156 199.0625 286.773438 C 196.699219 286.367188 194.34375 285.953125 192 285.441406 C 188.585938 284.726562 185.1875 283.898438 181.785156 283.113281 L 176.664062 282.011719 C 175.808594 281.824219 174.957031 281.632812 174.113281 281.414062 L 172.859375 281.074219 C 171.488281 281.089844 170.117188 281.09375 168.75 281.089844 L 164.140625 281.136719 C 163.375 281.132812 162.605469 281.125 161.839844 281.082031 L 160.6875 281.007812 C 160.304688 280.980469 159.917969 280.875 159.535156 280.460938 C 159.914062 280.046875 160.296875 279.9375 160.679688 279.902344 L 161.824219 279.800781 C 162.585938 279.734375 163.347656 279.699219 164.113281 279.660156 C 165.636719 279.59375 167.164062 279.539062 168.6875 279.4375 C 171.738281 279.214844 174.773438 278.894531 177.808594 278.636719 C 180.84375 278.355469 183.882812 278.195312 186.902344 277.875 C 188.332031 277.742188 189.746094 277.539062 191.167969 277.367188 C 190.214844 277.132812 189.261719 276.867188 188.316406 276.570312 C 187.914062 276.4375 187.503906 276.324219 187.105469 276.175781 L 185.914062 275.6875 C 185.105469 275.402344 184.359375 274.914062 183.597656 274.511719 C 183.234375 274.261719 182.871094 274.007812 182.519531 273.742188 C 182.167969 273.476562 181.851562 273.132812 181.53125 272.828125 C 181.378906 272.664062 181.246094 272.464844 181.105469 272.285156 C 180.960938 272.109375 180.832031 271.921875 180.726562 271.703125 C 180.480469 271.328125 180.34375 270.742188 180.75 270.25 C 181.03125 270.421875 181.191406 270.53125 181.359375 270.65625 C 181.496094 270.78125 181.625 270.910156 181.730469 271.054688 C 181.828125 271.199219 181.957031 271.328125 182.097656 271.453125 C 182.238281 271.578125 182.355469 271.710938 182.503906 271.824219 C 182.824219 272.035156 183.09375 272.285156 183.429688 272.472656 C 183.773438 272.652344 184.101562 272.855469 184.433594 273.042969 C 185.160156 273.347656 185.847656 273.699219 186.609375 273.9375 L 187.730469 274.332031 C 188.109375 274.449219 188.507812 274.535156 188.894531 274.640625 C 191.988281 275.460938 195.21875 275.847656 198.449219 276.226562 L 200.878906 276.515625 L 203.324219 276.726562 L 205.773438 276.945312 L 208.230469 277.070312 C 209.871094 277.128906 211.515625 277.199219 213.160156 277.171875 C 213.980469 277.171875 214.804688 277.179688 215.625 277.214844 L 216.863281 277.277344 C 217.277344 277.296875 217.691406 277.394531 218.117188 277.800781 C 217.722656 278.226562 217.3125 278.339844 216.898438 278.382812 L 215.660156 278.496094 C 214.832031 278.570312 214.003906 278.609375 213.179688 278.648438 C 211.523438 278.742188 209.863281 278.695312 208.203125 278.730469 L 205.710938 278.785156 L 203.214844 278.746094 L 200.714844 278.691406 L 198.214844 278.496094 C 197.070312 278.410156 195.925781 278.277344 194.785156 278.09375 L 193.980469 278.382812 C 193.234375 278.597656 192.484375 278.8125 191.730469 278.996094 C 190.21875 279.351562 188.691406 279.636719 187.167969 279.871094 Z M 170.230469 251.503906 C 170.230469 252.285156 171.152344 252.917969 172.289062 252.917969 C 173.429688 252.917969 174.351562 252.285156 174.351562 251.503906 C 174.351562 250.71875 173.429688 250.085938 172.289062 250.085938 C 171.152344 250.085938 170.230469 250.71875 170.230469 251.503906 Z M 200.492188 252.453125 C 200.675781 251.0625 199.46875 250.398438 199.054688 250.214844 C 196.894531 250.097656 176.824219 249.011719 172.273438 248.769531 C 170.96875 248.695312 169.984375 248.953125 169.429688 249.503906 C 168.828125 250.101562 168.839844 250.910156 168.839844 250.917969 C 168.871094 251.550781 168.382812 252.085938 167.75 252.117188 C 167.085938 252.128906 166.578125 251.65625 166.550781 251.027344 C 166.539062 250.84375 166.503906 249.183594 167.8125 247.882812 C 168.855469 246.847656 170.398438 246.378906 172.394531 246.480469 C 177.203125 246.738281 199.367188 247.941406 199.367188 247.941406 C 199.476562 247.945312 199.585938 247.96875 199.691406 248.007812 C 200.914062 248.441406 203.128906 249.988281 202.761719 252.753906 C 202.683594 253.328125 202.191406 253.746094 201.628906 253.746094 C 201.578125 253.746094 201.527344 253.742188 201.476562 253.734375 C 200.847656 253.652344 200.40625 253.078125 200.492188 252.453125"/><path fill="#F1E510" d="M 170.742188 237.472656 C 170.355469 237.257812 169.953125 237.203125 169.570312 237.144531 C 169.28125 237.117188 168.984375 237.09375 168.703125 237.058594 C 168.136719 236.980469 167.59375 236.867188 167.15625 236.667969 C 166.71875 236.464844 166.417969 236.191406 166.234375 235.796875 C 166.050781 235.402344 165.992188 234.875 166.007812 234.328125 C 166.007812 233.78125 166.101562 233.222656 166.199219 232.632812 C 166.402344 231.398438 166.617188 230.007812 165.988281 228.59375 C 165.671875 227.90625 165.140625 227.355469 164.613281 226.949219 C 164.085938 226.539062 163.546875 226.214844 163.023438 225.902344 L 162.246094 225.429688 C 162.015625 225.265625 161.78125 225.136719 161.582031 224.949219 C 161.164062 224.601562 160.808594 224.175781 160.523438 223.695312 C 159.960938 222.726562 159.652344 221.65625 159.132812 220.460938 C 158.179688 222.988281 160.148438 225.839844 162.3125 227.007812 C 163.316406 227.699219 164.328125 228.328125 164.667969 229.191406 C 165.035156 230.054688 164.917969 231.226562 164.71875 232.367188 C 164.613281 232.980469 164.503906 233.628906 164.496094 234.304688 C 164.484375 234.972656 164.535156 235.695312 164.855469 236.421875 C 165.171875 237.152344 165.84375 237.746094 166.515625 238.042969 C 167.1875 238.351562 167.859375 238.476562 168.503906 238.566406 C 168.824219 238.613281 169.140625 238.636719 169.457031 238.664062 C 169.679688 238.707031 169.886719 238.726562 170.039062 238.820312 C 170.355469 238.96875 170.582031 239.28125 170.722656 239.757812 C 170.871094 240.222656 170.921875 240.785156 170.941406 241.355469 C 170.960938 241.9375 170.816406 242.480469 171.1875 243.207031 C 171.886719 242.753906 171.960938 242.089844 172.089844 241.453125 C 172.214844 240.8125 172.257812 240.136719 172.121094 239.410156 C 171.992188 238.710938 171.539062 237.871094 170.742188 237.472656 Z M 217.902344 222.476562 C 217.246094 222.496094 216.574219 222.597656 215.898438 222.890625 C 215.242188 223.171875 214.519531 223.792969 214.300781 224.65625 C 214.175781 225.078125 214.210938 225.488281 214.238281 225.867188 C 214.273438 226.160156 214.316406 226.453125 214.339844 226.734375 C 214.390625 227.300781 214.394531 227.859375 214.296875 228.328125 C 214.191406 228.804688 213.992188 229.152344 213.648438 229.414062 C 213.300781 229.679688 212.800781 229.851562 212.261719 229.957031 C 211.726562 230.074219 211.160156 230.105469 210.5625 230.140625 C 209.3125 230.210938 207.90625 230.304688 206.664062 231.222656 C 206.058594 231.683594 205.636719 232.320312 205.355469 232.921875 C 205.066406 233.53125 204.871094 234.121094 204.675781 234.703125 L 204.386719 235.5625 C 204.273438 235.824219 204.203125 236.078125 204.058594 236.3125 C 203.8125 236.800781 203.472656 237.238281 203.066406 237.617188 C 202.242188 238.378906 201.261719 238.914062 200.210938 239.679688 C 202.886719 240.058594 205.238281 237.519531 205.917969 235.152344 C 206.371094 234.023438 206.761719 232.902344 207.53125 232.378906 C 208.296875 231.835938 209.46875 231.695312 210.621094 231.640625 C 211.246094 231.609375 211.90625 231.574219 212.566406 231.433594 C 213.222656 231.304688 213.917969 231.097656 214.558594 230.625 C 215.203125 230.15625 215.636719 229.375 215.777344 228.65625 C 215.9375 227.929688 215.910156 227.25 215.859375 226.601562 C 215.832031 226.277344 215.792969 225.964844 215.746094 225.648438 C 215.742188 225.421875 215.714844 225.214844 215.769531 225.046875 C 215.851562 224.710938 216.101562 224.421875 216.539062 224.179688 C 216.960938 223.929688 217.5 223.765625 218.054688 223.617188 C 218.617188 223.472656 219.179688 223.492188 219.804688 222.972656 C 219.210938 222.390625 218.546875 222.464844 217.902344 222.476562 Z M 189.488281 224.914062 C 189.816406 225.570312 189.953125 226.453125 189.726562 227.21875 C 189.511719 227.980469 189.085938 228.570312 188.648438 229.078125 C 188.210938 229.59375 187.710938 230.023438 187.234375 230.425781 C 186.355469 231.175781 185.515625 232.003906 185.246094 232.898438 C 184.953125 233.78125 185.332031 234.910156 185.664062 236.082031 C 186.578125 238.367188 186.269531 241.816406 183.917969 243.152344 C 184.28125 241.898438 184.726562 240.882812 184.917969 239.769531 C 185.003906 239.222656 185.003906 238.667969 184.902344 238.136719 C 184.875 237.863281 184.773438 237.613281 184.703125 237.339844 L 184.40625 236.480469 C 184.203125 235.902344 184 235.3125 183.851562 234.660156 C 183.707031 234.011719 183.652344 233.246094 183.847656 232.515625 C 184.269531 231.03125 185.324219 230.097656 186.269531 229.273438 C 186.722656 228.882812 187.148438 228.511719 187.503906 228.09375 C 187.863281 227.683594 188.152344 227.242188 188.265625 226.820312 C 188.378906 226.398438 188.320312 226 188.113281 225.5625 C 187.90625 225.128906 187.558594 224.695312 187.175781 224.277344 C 186.980469 224.066406 186.769531 223.863281 186.5625 223.652344 C 186.304688 223.367188 186.03125 223.0625 185.871094 222.652344 C 185.511719 221.835938 185.703125 220.902344 186.054688 220.28125 C 186.410156 219.640625 186.875 219.144531 187.382812 218.730469 C 187.886719 218.324219 188.367188 217.863281 189.195312 217.960938 C 189.015625 218.753906 188.558594 219.078125 188.203125 219.542969 C 187.851562 219.992188 187.53125 220.453125 187.34375 220.910156 C 187.152344 221.367188 187.128906 221.75 187.273438 222.066406 C 187.332031 222.234375 187.480469 222.382812 187.621094 222.554688 C 187.847656 222.78125 188.074219 223 188.292969 223.242188 C 188.730469 223.722656 189.167969 224.246094 189.488281 224.914062"/><path fill="#E3386A" d="M 149.890625 174.277344 C 149.714844 174.292969 149.539062 174.316406 149.367188 174.34375 C 149.019531 174.398438 148.683594 174.472656 148.355469 174.582031 C 148.023438 174.675781 147.699219 174.789062 147.371094 174.898438 C 147.210938 174.960938 147.039062 174.996094 146.894531 175.105469 C 146.820312 175.15625 146.753906 175.234375 146.691406 175.316406 C 146.664062 175.367188 146.625 175.394531 146.605469 175.46875 C 146.585938 175.546875 146.589844 175.695312 146.628906 175.953125 C 146.753906 176.179688 146.835938 176.300781 146.902344 176.355469 C 146.964844 176.402344 147.007812 176.398438 147.0625 176.425781 C 147.160156 176.453125 147.257812 176.472656 147.351562 176.472656 C 147.53125 176.46875 147.6875 176.398438 147.851562 176.351562 C 148.183594 176.242188 148.511719 176.136719 148.835938 176.015625 C 149.160156 175.90625 149.476562 175.757812 149.785156 175.597656 C 149.941406 175.515625 150.09375 175.429688 150.242188 175.339844 C 150.398438 175.257812 150.554688 175.1875 150.558594 174.644531 C 150.230469 174.210938 150.0625 174.25 149.890625 174.277344 Z M 140.105469 178.425781 C 139.785156 178.433594 139.472656 178.476562 139.152344 178.515625 L 138.214844 178.703125 C 137.59375 178.832031 136.96875 178.945312 136.34375 179.089844 L 134.496094 179.566406 C 132.050781 180.269531 129.628906 181.085938 127.316406 182.144531 C 124.992188 183.171875 122.714844 184.316406 120.511719 185.574219 C 119.410156 186.214844 118.316406 186.863281 117.277344 187.59375 C 116.761719 187.964844 116.25 188.34375 115.765625 188.765625 C 115.289062 189.179688 114.734375 189.515625 114.558594 190.335938 C 115.394531 190.402344 115.863281 190.007812 116.421875 189.71875 C 116.972656 189.421875 117.515625 189.109375 118.054688 188.800781 L 121.269531 186.898438 C 123.429688 185.65625 125.652344 184.53125 127.925781 183.519531 C 130.195312 182.5 132.515625 181.601562 134.875 180.828125 L 136.65625 180.261719 C 137.25 180.09375 137.855469 179.949219 138.457031 179.789062 C 139.660156 179.449219 140.882812 179.300781 142.050781 178.566406 C 141.390625 178.40625 140.75 178.394531 140.105469 178.425781 Z M 170.601562 83.984375 C 170.394531 84.035156 170.234375 84.160156 170.046875 84.246094 C 169.691406 84.449219 169.34375 84.6875 169.058594 84.980469 C 168.472656 85.554688 168.007812 86.234375 167.648438 86.945312 C 166.910156 88.363281 166.464844 89.875 166.183594 91.386719 C 165.898438 92.902344 165.800781 94.433594 165.800781 95.949219 C 165.8125 96.710938 165.847656 97.46875 165.902344 98.222656 C 165.945312 98.972656 166.007812 99.742188 166.59375 100.4375 C 167.03125 99.648438 167.011719 98.925781 167.015625 98.191406 C 167.027344 97.453125 167.0625 96.722656 167.121094 95.992188 C 167.214844 94.53125 167.402344 93.085938 167.671875 91.671875 C 167.960938 90.265625 168.363281 88.882812 169 87.652344 C 169.316406 87.035156 169.707031 86.480469 170.121094 85.949219 C 170.324219 85.679688 170.539062 85.417969 170.765625 85.164062 C 170.988281 84.878906 171.28125 84.761719 171.339844 84.089844 C 171.054688 83.949219 170.8125 83.941406 170.601562 83.984375 Z M 200.015625 72.742188 C 197.660156 72.769531 195.316406 73.035156 193.027344 73.542969 C 190.742188 74.066406 188.511719 74.765625 186.328125 75.59375 C 185.238281 76.007812 184.160156 76.457031 183.125 76.988281 C 182.605469 77.257812 182.097656 77.550781 181.605469 77.867188 C 181.125 78.195312 180.574219 78.421875 180.339844 79.1875 C 181.105469 79.386719 181.582031 79.089844 182.125 78.898438 C 182.664062 78.710938 183.191406 78.496094 183.722656 78.292969 C 184.773438 77.867188 185.816406 77.421875 186.875 77.019531 C 188.992188 76.207031 191.15625 75.523438 193.359375 75.011719 C 195.566406 74.535156 197.792969 74.179688 200.039062 74.058594 C 201.15625 74.066406 202.289062 74 203.398438 74.15625 C 204.535156 74.214844 205.582031 74.519531 206.847656 74.285156 C 205.867188 73.539062 204.707031 73.164062 203.539062 73.054688 C 202.375 72.820312 201.195312 72.816406 200.015625 72.742188 Z M 293.445312 273.65625 C 293.292969 273.042969 292.667969 272.675781 292.054688 272.832031 L 263.984375 280.003906 C 267.28125 261.441406 270.976562 238.617188 270.976562 229.492188 C 270.976562 213.796875 276.953125 203.132812 277.011719 203.027344 C 277.324219 202.480469 277.132812 201.78125 276.585938 201.46875 C 276.035156 201.15625 275.335938 201.34375 275.019531 201.894531 C 274.761719 202.34375 268.6875 213.15625 268.6875 229.492188 C 268.6875 245.414062 256.800781 306.058594 256.679688 306.667969 C 256.558594 307.289062 256.964844 307.890625 257.585938 308.011719 C 257.660156 308.027344 257.734375 308.035156 257.804688 308.035156 C 258.34375 308.035156 258.820312 307.65625 258.929688 307.113281 C 259.128906 306.089844 261.183594 295.609375 263.539062 282.480469 L 292.621094 275.050781 C 293.234375 274.890625 293.605469 274.269531 293.445312 273.65625 Z M 125.652344 356.101562 C 125.058594 355.882812 124.398438 356.191406 124.183594 356.785156 C 122.226562 362.160156 114.960938 369.960938 114.886719 370.035156 C 114.457031 370.496094 114.480469 371.222656 114.941406 371.652344 C 115.164062 371.859375 115.445312 371.960938 115.722656 371.960938 C 116.03125 371.960938 116.335938 371.839844 116.5625 371.601562 C 116.875 371.265625 124.21875 363.382812 126.335938 357.5625 C 126.550781 356.972656 126.246094 356.316406 125.652344 356.101562 Z M 116.34375 301.203125 C 116.128906 300.476562 113.550781 291.59375 110.933594 280.535156 L 86.285156 275.402344 C 85.664062 275.277344 85.265625 274.667969 85.398438 274.050781 C 85.527344 273.429688 86.132812 273.035156 86.75 273.164062 L 110.359375 278.074219 C 107.890625 267.332031 105.542969 255.035156 105.304688 246.257812 C 104.800781 227.9375 96.238281 211.132812 96.152344 210.964844 C 95.859375 210.402344 96.082031 209.714844 96.644531 209.425781 C 97.207031 209.136719 97.898438 209.355469 98.1875 209.917969 C 98.550781 210.621094 107.074219 227.355469 107.59375 246.195312 C 108.097656 264.625 118.4375 300.207031 118.542969 300.5625 C 118.722656 301.171875 118.371094 301.804688 117.765625 301.984375 C 117.65625 302.015625 117.546875 302.027344 117.441406 302.027344 C 116.945312 302.027344 116.488281 301.703125 116.34375 301.203125"/></svg>